<?xml version="1.0" standalone="no"?>
<!DOCTYPE svg PUBLIC "-//W3C//DTD SVG 1.1//EN" "http://www.w3.org/Graphics/SVG/1.1/DTD/svg11.dtd" >
<svg xmlns="http://www.w3.org/2000/svg">
<metadata></metadata>
<defs>
<font id="chicleregular" horiz-adv-x="796" >
<font-face units-per-em="2048" ascent="1638" descent="-410" />
<missing-glyph horiz-adv-x="409" />
<glyph horiz-adv-x="2048" />
<glyph horiz-adv-x="2048" />
<glyph unicode="&#xd;" horiz-adv-x="681" />
<glyph unicode=" "  horiz-adv-x="409" />
<glyph unicode="&#x09;" horiz-adv-x="409" />
<glyph unicode="&#xa0;" horiz-adv-x="409" />
<glyph unicode="!" horiz-adv-x="471" d="M20 98q6 76 76 121t137.5 45t104.5 -25.5t37 -68.5q0 -80 -72 -127t-139 -47q-140 0 -144 102zM33 1264q0 80 89 126t181 46q147 0 148 -88l-13 -52q-125 -304 -125 -753l2 -76q0 -63 -108 -64q-18 0 -37.5 2.5t-50.5 24t-31 59.5v11q8 106 8 234t-13 248t-26 169l-12 51 q-12 35 -12 62z" />
<glyph unicode="&#x22;" horiz-adv-x="552" d="M31 1468q0 37 22 58q31 29 86.5 28.5t79 -34t23.5 -76.5t-80 -277q-12 -28 -39 -28q-33 0 -43 67q-12 74 -30.5 166t-18.5 96zM311 1468q0 37 23 58q31 29 86 28.5t78.5 -34t23.5 -77t-80 -276.5q-12 -29 -40.5 -28.5t-41.5 67.5q-12 74 -30.5 166t-18.5 96z" />
<glyph unicode="#" horiz-adv-x="1089" d="M20 516q0 96 86 96q72 -2 166 -2v219l-186 -2q-66 0 -66 78q0 37 23 62.5t63 27.5q72 -2 166 -2l-2 166q0 37 21 58q27 29 59 28q86 0 88 -59q-4 -33 -4 -193h219l-2 166q0 39 22.5 60.5t36 23.5t25.5 2q84 0 84 -59q-4 -33 -4 -193q150 0 178.5 1t50.5 -19 q25 -27 25 -62.5t-14.5 -57t-28.5 -24.5l-14 -4q-66 4 -197 4v-221q150 0 178.5 1t50 -19.5t23.5 -33.5t2 -37.5t-14.5 -47t-28.5 -27.5l-14 -2q-66 4 -195 5l2 -189q0 -66 -86 -65q-31 0 -56.5 24.5t-25.5 61.5v168l-215 -3l2 -186q0 -66 -88 -65q-51 0 -71 45q-8 18 -9 41 v165l-184 -2q-31 0 -48.5 21.5t-17.5 50.5zM434 610h219v221l-219 -2v-219z" />
<glyph unicode="$" horiz-adv-x="825" d="M2 326q0 88 45 174t119 86q27 0 41 -18.5t18 -63.5t18.5 -87t31 -61.5t36.5 -31.5q29 -14 49 -15q49 0 80 40t31 100.5t-59.5 150.5t-129 168t-129 177t-59.5 202.5t73 202t202 141.5v102q0 29 26.5 43.5t55 14.5t42 -12.5t17.5 -34.5v-86h29q195 0 194 -175 q0 -115 -59 -114q-20 0 -55 15.5t-76 15.5t-70 -35t-29 -92.5t56.5 -134t123 -143.5t123 -184.5t56.5 -242.5t-30 -211t-81 -135q-90 -88 -198 -117v-110q-2 -29 -32 -43.5t-63 -14.5q-47 0 -47 45v109q-164 10 -257 110.5t-93 264.5z" />
<glyph unicode="%" horiz-adv-x="1230" d="M23 1063q0 154 69.5 290t206.5 136q115 0 177.5 -102.5t62.5 -223.5t-21.5 -217t-86 -168.5t-179.5 -72.5t-172 102t-57 256zM102 -10q0 12 15 37l868 1474q18 35 86 35t68 -37q0 -10 -6 -22l-867 -1475q-23 -51 -93.5 -51t-70.5 39zM193 1143q0 -94 29.5 -141.5 t70.5 -47.5t65.5 38t24.5 124t-28.5 159t-75.5 73q-86 0 -86 -205zM682 325.5q0 153.5 69.5 290t206.5 136.5q115 0 177.5 -102.5t62.5 -223.5t-21.5 -217t-86 -169t-179 -73t-172 102.5t-57.5 256zM852 406q0 -94 29.5 -141.5t70.5 -47.5t65.5 38t24.5 124t-28.5 158.5 t-75.5 72.5q-86 0 -86 -204z" />
<glyph unicode="&#x26;" horiz-adv-x="1024" d="M0 287q0 82 28.5 167t69.5 148q82 123 152 189l29 26q6 6 6 19l-2 16q-94 197 -94.5 315.5t112.5 214t289 95.5q229 0 229 -164q0 -158 -239 -434q-16 -10 -16.5 -21.5t3.5 -19.5q70 -141 181 -306q4 -8 14 -8q27 0 43 43q14 31 48 31t54.5 -43t20.5 -93t-15.5 -83 t-15.5 -49.5t20.5 -32.5t47.5 -16l30 2q55 0 56 -47q0 -76 -77 -166t-161 -90q-39 0 -69.5 22.5t-43.5 44.5l-12 23q-4 12 -18.5 12t-59.5 -25q-139 -76 -282.5 -75.5t-235.5 83t-92 222.5zM291 427.5q0 -75.5 37 -117.5t92 -42t108 27q16 8 17 22l-6 19q-84 150 -133 244 q-8 12 -22.5 12t-29.5 -17q-63 -72 -63 -147.5zM432 1181q0 -36 15.5 -93.5t35.5 -57.5q7 0 11 4q76 78 75 178q0 74 -55 74q-39 0 -60.5 -34.5t-21.5 -70.5z" />
<glyph unicode="'" horiz-adv-x="272" d="M31 1468q0 37 22 58q31 29 86.5 28.5t79 -34t23.5 -76.5t-80 -277q-12 -28 -39 -28q-33 0 -43 67q-12 74 -30.5 166t-18.5 96z" />
<glyph unicode="(" horiz-adv-x="466" d="M0 721q0 174 40 327.5t95 249.5q117 193 209 263l41 30q53 31 80 31t27 -20.5t-14.5 -46t-30 -47t-54.5 -99.5t-67.5 -165t-53 -229.5t-24.5 -294t22.5 -291.5t57.5 -232q70 -193 121 -267l22 -30q23 -31 23 -55.5t-25 -24.5q-23 0 -84 30q-49 31 -125 117t-126 177.5 t-92 247t-42 329.5z" />
<glyph unicode=")" horiz-adv-x="436" d="M-57 -158q0 27 15 48.5t30.5 43t54.5 99.5t67.5 165t53 229t24.5 293.5t-22.5 292t-54.5 232.5q-66 184 -123 266l-23 31q-20 39 -20 59.5t22.5 20.5t83.5 -31q49 -31 125 -116.5t126 -177t92 -247t42 -329.5t-40 -327.5t-97 -250.5q-115 -193 -209 -262l-39 -31 q-53 -31 -80.5 -30.5t-27.5 22.5z" />
<glyph unicode="*" horiz-adv-x="585" d="M0 1087q0 51 53 68q27 6 76 29.5t49 46.5q0 27 -125 74q-33 12 -33 43.5t24 53t47.5 21.5t47.5 -18q59 -63 88 -64q18 0 19 39l-8 74q0 68 72.5 69.5t72.5 -53.5l-18 -106q0 -27 22 -27q27 0 67 37t68.5 37t46 -22.5t17.5 -51.5q0 -49 -58 -63q-94 -27 -94 -51 q0 -41 88 -70q39 -8 39 -43t-20.5 -59.5t-45 -24.5t-46.5 23q-55 63 -84 63q-25 0 -25 -39t8 -74.5t8 -48.5q0 -53 -70.5 -54t-70.5 58q0 16 12.5 54.5t12.5 68t-13 29.5q-25 0 -108 -64q-20 -20 -48 -20t-49.5 20.5t-21.5 44.5z" />
<glyph unicode="+" horiz-adv-x="962" d="M20 727q0 51 46 72q18 8 97 7t236 -1v65l-2 236q0 33 20.5 52.5t41.5 21.5l20 4q84 0 86 -58q-4 -45 -4 -264v-57h68q203 0 237 2q68 0 76 -80q0 -86 -59 -88q-45 4 -262 4h-60l4 -315q0 -33 -24.5 -49.5t-47 -16.5t-37 3t-37 24.5t-22.5 58.5q0 135 2 293l-313 -2 q-66 0 -66 88z" />
<glyph unicode="," horiz-adv-x="397" d="M33 88q2 68 62 112t138 44q133 0 134 -135q0 -88 -65.5 -199t-149.5 -111q-31 0 -31 25l6 26q31 59 31 93q0 59 -29 65l-10 2q-86 14 -86 78z" />
<glyph unicode="-" horiz-adv-x="970" d="M57 504q0 33 18.5 61.5t55.5 30.5q326 -2 494 -2t188 2q37 -2 57.5 -28.5t20.5 -59.5t-15 -55.5t-42 -24.5q-39 4 -213 4l-508 -4q-27 0 -41.5 21.5t-14.5 54.5z" />
<glyph unicode="." horiz-adv-x="387" d="M33 88q0 63 61.5 110.5t127 47.5t98 -24.5t33.5 -75t-61.5 -97.5t-127 -47t-98 23.5t-33.5 62.5z" />
<glyph unicode="/" horiz-adv-x="608" d="M-63 -10q0 18 14 37l866 1474q18 35 87 35t69 -37q0 -10 -6 -22l-867 -1475q-23 -51 -93 -51t-70 39z" />
<glyph unicode="0" horiz-adv-x="950" d="M35 637q0 207 56 395.5t171 315.5t262 127q190 0 305 -200t115 -507q0 -279 -100 -514q-51 -125 -150.5 -202t-237 -77t-235.5 95q-186 178 -186 567zM336 812q0 -167 51 -263t125 -96t116 77.5t42 241.5t-51.5 299t-133.5 135q-74 0 -111.5 -113.5t-37.5 -280.5z" />
<glyph unicode="1" horiz-adv-x="462" d="M-53 1204q0 72 152.5 169t228 97t75.5 -67q0 -59 -10 -244q-8 -250 -8 -563t23 -432q8 -14 8 -35q0 -74 -103.5 -120t-179.5 -46t-76 70l6 37q49 365 50 698l-11 270q0 31 -24.5 60t-65.5 39q-66 16 -65 67z" />
<glyph unicode="2" horiz-adv-x="743" d="M-20 86q0 133 133 369l198 368q96 174 97 273q0 51 -25 78.5t-49 29.5l-25 4q-43 0 -77.5 -22.5t-47.5 -46.5l-14 -23q-25 -45 -74 -45q-59 0 -59 117q0 174 99.5 238.5t258.5 64.5q201 0 285 -139q35 -55 35 -122t-7.5 -112t-31 -96t-35.5 -73.5t-54 -89t-52 -83.5 l-183 -327q-12 -29 -12 -56q0 -45 68.5 -45t111.5 18.5t58 34.5l14 19q45 55 84 55q57 0 57 -86q0 -295 -88 -364q-35 -41 -326 -41l-243 6q-96 4 -96 96z" />
<glyph unicode="3" horiz-adv-x="739" d="M0 205q0 86 12 149l6 25q16 70 70 70q31 0 51 -25q43 -59 124 -59t121 53t40 126.5t-62.5 113.5t-144.5 40l-41 -2q-45 0 -45 72l12 86q8 37 29 59q29 29 59 29q63 0 111.5 51t48.5 113q0 121 -121 121q-55 0 -90 -35q-43 -43 -78 -47q-57 8 -57 90q0 246 315 246 q63 0 130 -18.5t107 -47.5t71.5 -87t30.5 -134t-22.5 -135.5t-49.5 -91.5q-59 -68 -111 -88l-20 -9q-14 -6 -15 -20l13 -19q223 -84 223 -358q0 -137 -39 -237.5t-88 -148.5t-115 -77q-84 -37 -154.5 -37t-118.5 7.5t-100 29.5q-102 47 -102 195z" />
<glyph unicode="4" horiz-adv-x="872" d="M0 475l2 21q41 180 157.5 406t213.5 364l94 135q61 84 244 84q90 0 90 -62q0 -8 -22.5 -112.5t-23.5 -193.5t-1 -261v-135q-1 -16 32 -16l45 4q41 0 41 -43q0 -207 -92 -271q-20 -4 -20 -35l-2 -36q0 -84 24 -177q8 -14 9 -34q0 -68 -90.5 -103t-180.5 -37q-74 0 -74 70 l7 37q37 106 36 248q0 27 -24 26q-41 -2 -117 -2l-201 4q-86 0 -116.5 37t-30.5 82zM338 725q0 -29 20.5 -36t84 -7t63.5 33l2 131l-4 192q-6 18 -18.5 18.5t-24.5 -20.5q-123 -221 -123 -311z" />
<glyph unicode="5" horiz-adv-x="753" d="M2 270.5q0 180.5 90 180.5q16 0 60.5 -34t107.5 -34q43 0 90 23q88 41 88 174q0 115 -94 165q-39 21 -88 21l-133 -18q-61 0 -62 57q0 393 31 565q14 63 51 81.5t101 18.5l256 -8q72 0 112.5 12.5t49.5 12.5q43 0 43 -47q0 -174 -72 -228q-31 -29 -141 -28l-68 4 q-82 0 -102 -37q-14 -33 -15 -92l2 -39q4 -31 31 -31q20 4 56 4t74 -8t88 -37.5t86 -79t61.5 -142.5t25.5 -167t-3 -105.5t-14.5 -99t-42 -125t-77.5 -116t-129 -92t-194.5 -33.5t-200.5 57q-68 45 -68 225.5z" />
<glyph unicode="6" horiz-adv-x="856" d="M31 513.5q0 111.5 6 202.5t24.5 209.5t57.5 214t96 179.5t151.5 131t213.5 47q55 0 116 -12q84 -16 84 -151.5t-59 -135.5q-6 0 -39 16.5t-84 16.5q-100 0 -164.5 -76t-64.5 -149q0 -20 18 -21q2 0 16 2q54 12 89 12q172 0 257 -133t85 -317q0 -213 -89 -377 q-45 -84 -127.5 -133t-190.5 -49t-183.5 43t-114.5 103.5t-63 142.5q-35 123 -35 234.5zM305 623.5q0 -76.5 41 -159.5t115 -83q94 0 94 141q0 90 -37 177t-110 87q-51 0 -77 -43t-26 -119.5z" />
<glyph unicode="7" horiz-adv-x="503" d="M-20 1176.5q0 105.5 34 230.5q8 23 32 39t64 19t108.5 3t125.5 -7t87 -14t42 -7t25 10q53 41 94 41q47 0 47 -81t-47 -252t-72 -240l-26 -70q-129 -367 -129 -586q0 -82 24 -106q14 -27 14 -52q0 -63 -91 -96t-183 -33q-113 0 -113 99q0 199 201 635q139 301 152 419 q0 39 -105 39q-49 0 -86 -10t-78 -48t-71 -38q-49 0 -49 105.5z" />
<glyph unicode="8" horiz-adv-x="909" d="M23 414q0 33 15 93t36.5 106t66.5 100.5t105 89.5q12 8 12 16q0 16 -20.5 28.5t-45 36t-45.5 54.5q-51 78 -51 182q0 70 32 141.5t72 115.5t113.5 77t167.5 33q158 0 259.5 -79t101.5 -237q0 -29 -6.5 -63.5t-44 -102t-105.5 -112.5q-12 -6 -12 -16.5t8 -18.5 q92 -61 148.5 -174t56.5 -217q0 -168 -88 -311q-113 -186 -359 -187q-190 0 -303.5 114t-113.5 331zM326 504.5q0 -64.5 43 -129t102 -64.5t88 39t29 105.5t-41 132t-99.5 65.5t-90 -42t-31.5 -106.5zM362 1158q0 -50 33 -102t80 -52t71.5 32.5t24.5 81.5t-34.5 101.5 t-79.5 52.5t-70 -32t-25 -82z" />
<glyph unicode="9" horiz-adv-x="798" d="M2 231.5q0 157.5 72 157.5q20 0 68 -29.5t106.5 -29.5t100.5 25.5t61.5 57t31.5 72.5q14 55 14.5 80t-18.5 25q-4 0 -36.5 -10.5t-65.5 -10.5q-158 0 -246 100.5t-88 270.5q0 236 113 386.5t301 150.5q102 0 175 -43t111.5 -104.5t61.5 -158.5q33 -137 33 -312 t-24.5 -311t-80 -270.5t-165 -216t-259.5 -81.5q-98 0 -170 32l-22 13q-74 49 -74 206.5zM279 1057q0 -80 37.5 -138.5t86 -58.5t80 54.5t30.5 134t-39 135t-85 55.5t-78.5 -51t-31.5 -131z" />
<glyph unicode=":" horiz-adv-x="387" d="M33 88q0 63 61.5 110.5t127 47.5t98 -24.5t33.5 -75t-61.5 -97.5t-127 -47t-98 23.5t-33.5 62.5zM33 797q0 63 60.5 111t126 48t100 -24.5t34.5 -61.5q0 -61 -61.5 -110t-126 -49t-99 24.5t-34.5 61.5z" />
<glyph unicode=";" horiz-adv-x="397" d="M33 88q2 68 62 112t138 44q133 0 134 -135q0 -88 -65.5 -199t-149.5 -111q-31 0 -31 25l6 26q31 59 31 93q0 59 -29 65l-10 2q-86 14 -86 78zM33 803q0 68 68.5 110.5t127 42.5t93 -24.5t34.5 -67.5q0 -68 -66.5 -110.5t-125 -42.5t-95 25.5t-36.5 66.5z" />
<glyph unicode="&#x3c;" horiz-adv-x="641" d="M41 689q0 30 25.5 60.5t73.5 89t144.5 161t131.5 112.5q29 16 115.5 16t86.5 -32q0 -20 -34 -49q-12 -12 -34 -32t-76 -74t-95 -97q-109 -117 -109 -153t78 -125t156 -163l78 -73q34 -28 34 -51q0 -33 -110 -33q-47 0 -89 16.5t-130 110.5t-156 180l-70 86q-20 20 -20 50 z" />
<glyph unicode="=" horiz-adv-x="868" d="M20 539q0 51 46 71q18 8 40 8q258 -2 444.5 -2t218.5 1t53.5 -19t23.5 -33.5t2 -25t-2 -25.5t-18.5 -38.5t-43.5 -24.5q-45 4 -237 4l-461 -4q-66 0 -66 88zM20 909q0 51 46 72q18 8 40 8q258 -2 444.5 -2t218.5 1t53.5 -19.5t23.5 -33.5t2 -24.5t-2 -26t-18.5 -39 t-43.5 -24.5q-45 4 -237 4l-461 -4q-66 0 -66 88z" />
<glyph unicode="&#x3e;" horiz-adv-x="641" d="M41 1096q0 33 98 32q68 0 105 -16q35 -10 123 -102t159 -181l72 -88q20 -23 20 -45q0 -33 -20 -57q-266 -342 -350 -375q-45 -18 -87 -18t-80 5t-38 27.5t35 51.5q12 12 33.5 31.5t75 72.5t94.5 98.5t74.5 90.5t33.5 70.5t-78 114.5t-155 163l-80 76q-35 29 -35 49z" />
<glyph unicode="?" horiz-adv-x="534" d="M-31 1178q0 127 106.5 203.5t248 76.5t237.5 -74.5t96 -216t-161 -336.5q-104 -104 -105 -208q0 -27 14.5 -55.5t14.5 -47.5q0 -61 -70.5 -94t-142.5 -33q-119 0 -119 96q0 119 117 271q55 68 96 148.5t41 129.5q0 12 -2 29.5t-28.5 46.5t-73.5 29q-35 0 -74 -24.5 t-58 -65.5q-18 -29 -50.5 -29t-51.5 33q-35 60 -35 121zM68 82q6 74 75.5 121t136 47t105.5 -26.5t39 -67.5q0 -80 -72.5 -127t-140.5 -47t-104.5 26.5t-38.5 73.5z" />
<glyph unicode="@" horiz-adv-x="1929" d="M31 387q0 418 281.5 688.5t705.5 270.5q457 0 680 -261q199 -233 198 -596q0 -225 -127 -428q-59 -98 -157.5 -158.5t-196.5 -60.5t-157.5 21.5t-90.5 50.5q-61 63 -73 111l-4 22q-2 23 -15 23l-24 -17q-78 -84 -210 -84t-194.5 82t-62.5 221q0 162 88 256q86 94 178 123 q96 33 149 37l25 2l20 27q-2 70 -108 69q-74 0 -127 -25.5t-78 -25.5q-49 0 -49 82q0 176 315 176q223 0 281 -151q27 -72 27 -195l-9 -301q0 -317 150 -317q66 0 112 49t66 127q37 143 37 256.5t-12.5 195.5t-54.5 180.5t-108.5 168t-188 117.5t-283.5 48q-313 0 -505 -224 t-192 -537.5t155 -489.5t474 -176q104 0 105 -66q0 -109 -281 -108q-336 0 -537.5 232.5t-201.5 584.5zM864 322q0 -86 66 -86q57 0 96 63t39 111q0 94 -68 94q-59 0 -96 -58.5t-37 -123.5z" />
<glyph unicode="A" horiz-adv-x="1056" d="M-90 -4q0 43 33 94l12 19q152 276 275.5 693t123.5 507q0 35 -11 60.5t-11 39.5q0 102 176 102q109 0 187.5 -42t99.5 -132q86 -676 151 -909q48 -203 101 -240q35 -25 34 -63q0 -76 -101 -127t-187 -51q-68 0 -99 30q-25 25 -26.5 73t-3.5 103.5t-3.5 100.5t-19.5 76.5 t-35 38.5q-18 8 -101 8t-128 -19q-45 -20 -86 -190q-10 -41 -12 -45q-55 -186 -269 -186q-100 0 -100 59zM422 653q0 -25 16.5 -31t61.5 -6t64.5 11.5t19.5 38.5q-16 180 -37 264l-6 22q-2 25 -15 25q-6 0 -20 -19q-84 -221 -84 -305z" />
<glyph unicode="B" horiz-adv-x="925" d="M-20 1282q0 68 69 117q16 12 49 31.5t141.5 52.5t239.5 33t237.5 -61.5t106.5 -182.5q0 -207 -170 -340q-14 -12 -14 -25.5t14 -21.5q88 -61 144.5 -135t76.5 -142q31 -100 31 -159q0 -238 -163.5 -368t-387.5 -130q-82 0 -152.5 17.5t-101.5 35.5l-30 19q-39 33 -39 77 q35 360 35 574.5t-16.5 342.5t-33.5 163l-18 37q-18 27 -18 65zM328 1257q0 -186 20 -307q4 -16 23 -16q59 0 102 79t43 144.5t-38 102t-94 36.5t-56 -39zM342 520q0 -184 104 -184q53 0 83 46t30 123t-37 143.5t-79 66.5t-71.5 -64.5t-29.5 -130.5z" />
<glyph unicode="C" horiz-adv-x="845" d="M20 591.5q0 90.5 7.5 180.5t26 199.5t54 201t87 170t132.5 123.5t159.5 45t114.5 -10t51.5 -10t51 16.5t88 16.5t52.5 -43q0 -2 -16.5 -89t-16.5 -178.5t16.5 -121t16.5 -56.5q0 -51 -47 -79.5t-103 -28.5q-143 0 -143 147q0 33 12 88.5t12 71.5q0 43 -47 43 q-66 0 -131 -119q-75 -135 -75 -394v-7q0 -115 24 -205q47 -170 156 -170q94 0 145 102q23 49 76 49l1 1q52 0 87 -60t35 -119q0 -178 -110.5 -288.5t-289.5 -110.5q-190 0 -286 129q-94 133 -117 270q-23 145 -23 235.5z" />
<glyph unicode="D" horiz-adv-x="907" d="M0 121l2 18q61 377 61 695q0 272 -34 403l-11 45q-10 20 -10 49q0 74 78 121q80 57 248 57t278.5 -64.5t171.5 -172.5q121 -213 121 -496q0 -260 -78 -459q-41 -109 -106.5 -186.5t-168.5 -125.5t-235 -48q-98 0 -174.5 23.5t-109.5 57.5t-33 83zM344 612q0 -141 10 -270 q0 -45 45 -45q191 0 191 516q0 338 -94 434q-33 35 -62 35q-51 0 -57 -51q-33 -211 -33 -619z" />
<glyph unicode="E" horiz-adv-x="829" d="M2 756q0 53 32 118.5t75 83.5q8 88 40.5 193.5t94.5 189.5q121 166 372 166q156 0 184.5 -72.5t28.5 -119.5q0 -111 -69 -111q-18 0 -59.5 20.5t-98.5 20.5q-100 0 -160.5 -74.5t-60.5 -169.5q0 -27 58 -28t134 -2l95 2q57 0 57 -72t-64.5 -117t-160.5 -49 q-125 0 -133 -49q-7 -39 -7 -90v-6q0 -48 8 -88q8 -43 31 -88q49 -102 185 -103q59 0 94 25.5t67.5 25.5t51 -33.5t18.5 -72.5q0 -131 -110.5 -216t-251.5 -85q-389 0 -390 575l9 158q-70 0 -70 68z" />
<glyph unicode="F" horiz-adv-x="600" d="M2 -260l8 41q80 328 80 870v25q0 12 -10 12q-78 0 -78 70q0 41 35 115.5t74 84.5q2 27 2 66q0 188 -62 238q-20 25 -20 61q0 66 86 117q164 88 383 88q53 0 87 -4t66.5 -27.5t32.5 -69.5q0 -76 -110.5 -108.5t-149.5 -90t-39 -159.5q0 -23 4 -68q2 -30 131 -30l82 2 q57 0 58 -62q0 -82 -57.5 -126t-143.5 -50q-31 0 -56.5 -15t-27.5 -34q-15 -150 -15 -348v-10q0 -194 21 -381q6 -20 6 -46t-12 -51q-39 -70 -115 -112q-102 -55 -181 -55t-79 57z" />
<glyph unicode="G" horiz-adv-x="892" d="M23 448q0 142 8 242.5t27.5 222t59.5 222t96 186.5t145.5 135t201.5 49q160 0 184 -65q14 -35 15 -101q0 -157 -73 -157h-1q-25 0 -57.5 32.5t-89 32.5t-106.5 -53t-73 -135q-41 -150 -41 -283q0 -244 62 -334q33 -47 86 -47t76.5 56.5t23.5 136.5t-27.5 178t-27.5 104 q0 37 35 64q93 65 237 65h4q68 0 68 -51l-4 -55q-23 -227 -23 -504.5t35 -374.5q8 -18 8 -43.5t-20.5 -42t-40.5 -18.5h-23q-96 2 -168.5 37t-72.5 110q0 104 -19 105l-14 -12q-70 -139 -178 -177q-35 -12 -66 -12q-76 0 -129 51t-75 140q-43 154 -43 296z" />
<glyph unicode="H" horiz-adv-x="925" d="M-18 1305q0 72 109.5 135t189.5 63q61 0 65 -67q2 -25 2 -70l-14 -334q0 -39 20.5 -51t98.5 -12q125 0 127 67l2 78l-7 209q0 76 94.5 130t178.5 54q35 0 50 -10t15 -43t-8 -68q-61 -305 -61 -690q4 -264 19.5 -381.5t49 -150.5t33.5 -68q0 -63 -94 -108t-151.5 -45 t-85 20.5t-31.5 40.5l-4 21q-17 73 -17 223l8 379q0 39 -4 84q-4 61 -82 61q-154 0 -153 -80q0 -446 22 -569q4 -12 4 -29q0 -74 -99 -123t-176 -49t-77 66l6 41q51 371 51 772l-10 317q-4 74 -49 131q-23 23 -22 56z" />
<glyph unicode="I" horiz-adv-x="401" d="M2 1305q0 74 113.5 136t180 62t71.5 -67q2 -25 2 -102t-11 -210q-6 -223 -6 -555.5t23 -445.5q6 -12 6 -31q0 -74 -102.5 -122t-177 -48t-74.5 68l6 39q51 371 51 772l-10 317q-4 74 -49 131q-23 23 -23 56z" />
<glyph unicode="J" horiz-adv-x="413" d="M-193 -168q0 39 17.5 61.5t36.5 26.5l16 4q66 2 109 40t53 73l10 37q43 143 43 624l-8 428q0 37 -12.5 65t-36 50.5t-23.5 54.5q0 72 113 139.5t181.5 67.5t72.5 -67q0 -197 -8 -312q-9 -274 -9 -544l9 -392q0 -211 -33 -315t-117 -169.5t-185.5 -65.5t-165 56t-63.5 138 z" />
<glyph unicode="K" horiz-adv-x="917" d="M2 1294q0 74 117 141.5t183.5 67.5t70.5 -67q-23 -225 -23 -383q0 -63 21 -64q10 0 18 15q29 57 94.5 161.5t113.5 171t104.5 121.5t93.5 55q61 0 100 -67.5t39 -130.5q0 -70 -83 -70t-181 -160q-25 -29 -25 -75.5t9.5 -84.5t19.5 -83t44 -164t66.5 -214t77.5 -184.5 t85 -113t40 -62.5q0 -68 -97 -117.5t-151.5 -49.5t-81 19t-50 70.5t-66.5 222.5t-70 308l-29 139q-10 49 -33.5 49t-40 -57t-16.5 -84q0 -342 27 -481q4 -12 4 -29q0 -76 -102.5 -124t-177 -48t-74.5 68l6 39q51 371 51 776l-10 321q-4 72 -39 103q-35 33 -35 65z" />
<glyph unicode="L" horiz-adv-x="761" d="M0 1321q0 68 124 133.5t193.5 65.5t69.5 -58q-27 -205 -32 -373.5t-5 -385t2 -261.5t3 -49t6.5 -14t15.5 -19q25 -18 76 -18q113 0 180 78q33 33 65 33q63 0 64 -121q0 -193 -76 -279t-362 -86q-131 0 -198 14.5t-81 32t-14 49.5l4 31q47 254 47 690l-8 349 q-4 74 -47 133q-27 27 -27 55z" />
<glyph unicode="M" horiz-adv-x="1271" d="M-47 -35l4 25q25 70 59 223l11 51q57 324 57 766q0 168 -37 242q-25 27 -24 59q0 90 150.5 142.5t253.5 52.5t126 -86q27 -92 43 -195q35 -215 63 -215q20 0 33 25q72 182 93.5 247.5t27.5 82t41 51t88 51.5q80 31 180 31q166 0 166 -72q0 -23 -18 -60 q-51 -76 -71.5 -295t-20.5 -432q0 -428 59 -469q39 -31 39 -72.5t-57.5 -82.5t-125 -61.5t-115.5 -20.5t-74.5 20.5t-31.5 40.5l-4 21q-10 35 -10 129q0 152 21 397l6 74q18 164 18 257t-16 93q-41 0 -150 -383q-45 -156 -75 -225l-13 -29q-29 -74 -100 -74q-23 0 -37 12.5 t-18 37.5q-37 94 -125 495l-29 131q-10 33 -27 33q-34 0 -34 -373l4 -325l-7 -179q-4 -59 -41.5 -100t-91.5 -57q-90 -29 -140 -29t-50 45z" />
<glyph unicode="N" horiz-adv-x="1019" d="M-20 -31q0 16 32.5 138t38.5 155q53 266 53 645v64l-4 121v12q0 59 -26 125l-8 20q-23 29 -23 68t45 79t111 62q137 47 233 47t115 -82q25 -82 54.5 -222t41.5 -187q33 -137 72 -213q6 -6 14 -6q20 0 25 47q0 184 -7.5 285.5t-7.5 155.5t6 73q23 68 93.5 112.5t135 44.5 t64.5 -51q0 -12 -28 -155q-70 -362 -70 -881q0 -172 12 -363v-8q0 -66 -69 -84q-53 -14 -113.5 -14t-139.5 27.5t-89 91.5q-57 344 -150 690l-31 117q-12 33 -28 32q-35 0 -35 -430q0 -147 6 -259.5t6 -133.5q0 -55 -38 -93t-93 -52q-92 -27 -145 -27t-53 49z" />
<glyph unicode="O" horiz-adv-x="960" d="M20 626v6q0 158 23 290q23 136 72 278.5t149.5 235t237.5 92.5q100 0 190 -64q248 -174 248 -766q0 -258 -104 -489q-51 -117 -147.5 -188.5t-212.5 -71.5t-196.5 50t-129 126t-78.5 174q-52 167 -52 327zM297 653q0 -125 36 -192.5t93 -67.5q88 0 152.5 153.5 t64.5 442.5t-119 289q-63 0 -117.5 -108.5t-82 -250t-27.5 -266.5z" />
<glyph unicode="P" horiz-adv-x="776" d="M2 1325q0 66 87 117t188.5 72.5t158 21.5t95 -4t111.5 -24.5t128 -55.5t97 -108.5t42 -189.5t-50 -227.5t-122 -176.5q-145 -131 -266 -170l-51 -17q-27 -14 -42.5 -39.5t-19.5 -62.5q4 -238 14.5 -286t10.5 -64q0 -74 -101.5 -123t-178 -49t-76.5 73l4 33q49 365 49 756 l-10 332q0 53 -34 104t-34 88zM354 971v-46q0 -83 2 -100q0 -34 27 -34h2q18 0 43 16q63 41 100 133t43.5 142.5t6.5 88t-9.5 73.5t-21.5 53.5t-29 27.5q-23 14 -43 14q-47 0 -75.5 -45t-28.5 -94q-17 -104 -17 -229z" />
<glyph unicode="Q" horiz-adv-x="960" d="M20 626v6q0 157 23 290q23 135 72 278t149.5 235.5t237.5 92.5q100 0 190 -64q248 -174 248 -766q0 -340 -139 -555q33 -33 65 -34q59 -8 60 -52q0 -74 -87 -128t-161 -54q-35 0 -46 7t-14.5 8t-19.5 19.5t-35 51.5q-47 -12 -98 -12q-104 0 -185 50t-129.5 126t-78.5 174 q-51 166 -52 327zM297 655q0 -288 124 -288h1q25 0 41 8v35q0 61 10 108q39 137 123 137q12 0 18 -2q29 154 29 316q0 309 -119 309q-63 0 -117.5 -108.5t-82 -250t-27.5 -264.5z" />
<glyph unicode="R" horiz-adv-x="940" d="M2 1325q0 96 172 155.5t315 59.5q98 0 181.5 -23.5t131.5 -56.5t83 -94t35 -145q0 -203 -164 -334q-31 -23 -31 -62q0 -12 2 -18q39 -252 123 -496q27 -78 78 -109.5t51 -76.5q0 -70 -91 -114t-169 -44q-84 0 -117 70q-6 10 -6 12q-57 111 -94 438q-16 147 -21 166 q0 23 -28 23q-57 0 -78 -43q-17 -43 -17 -211v-14q0 -158 12 -218q12 -64 11 -79q0 -76 -101.5 -125t-189.5 -49q-70 0 -70 67l7 41q51 381 51 786l-8 302q0 51 -34 106t-34 86zM354 1028q0 -29 4 -90q4 -35 37 -35q20 1 45 17q141 90 142 262q0 59 -27 104t-86 45 q-115 0 -115 -303z" />
<glyph unicode="S" horiz-adv-x="835" d="M2 326q0 94 46 177t118 83q25 0 40 -18.5t19 -63.5t18.5 -87t31 -61.5t36.5 -31.5q29 -14 49 -15q51 0 80 36t29 95.5t-39 130t-93 135t-110 130.5q-133 158 -133 299q0 184 124 283.5t317 99.5q106 0 152 -41t46 -144.5t-59 -103.5q-20 0 -54 15.5t-77 15.5t-72 -35 t-29 -87.5t37 -111.5t90.5 -117.5t106.5 -126t90 -166t37 -208t-27.5 -191.5t-74 -129t-92.5 -77.5t-99 -43.5q-80 -18 -121 -18q-180 0 -283.5 104.5t-103.5 272.5z" />
<glyph unicode="T" horiz-adv-x="466" d="M-113 1193q0 60 30 142t82 123t183 41l195 -10q98 0 143 22q27 10 51 11q47 0 47 -68q0 -53 -24 -123l-6 -22q-39 -121 -174 -121q-29 0 -29 -33q-6 -182 -6 -500.5t27 -509.5q4 -12 4 -28q0 -49 -48 -86q-106 -86 -256 -86q-72 0 -71 67l6 39q68 522 68 1100 q0 14 -6.5 20.5t-41 6.5t-72.5 -22.5t-59 -22.5q-43 0 -43 60z" />
<glyph unicode="U" horiz-adv-x="927" d="M2 1317q0 80 119 141.5t198.5 61.5t79.5 -58q0 -4 -8 -78q-29 -250 -31 -356l-10 -266q0 -295 103 -295q53 0 82 49q35 61 42 115.5t11 89.5t6 89t2 89v90q0 182 -21 277q-8 18 -8 47q0 82 102.5 144.5t180.5 62.5t78 -66q0 -16 -14.5 -88t-27 -199t-14.5 -218t-3 -223 t-4 -245.5t-38.5 -220t-85 -163t-114.5 -89.5q-98 -51 -216 -51t-205 72.5t-119 174t-32 226.5l11 481v105l-3 112q0 82 -36 132q-25 25 -25 57z" />
<glyph unicode="V" horiz-adv-x="716" d="M-129 1329q0 70 109.5 132.5t190.5 62.5t93 -78q29 -135 53 -434q33 -301 62 -414q8 -20 19.5 -20t26.5 27.5t37.5 82.5t61.5 196.5t39 257t-49 187.5q-12 16 -12 41q0 66 99 110t179 44q100 0 101 -82q0 -15 -2 -23q-37 -272 -133.5 -601t-172.5 -521l-77 -193 q-70 -159 -234 -159h-2q-104 0 -110 73q-20 227 -64.5 504t-77.5 441l-35 161q-20 92 -61 132t-41 73z" />
<glyph unicode="W" horiz-adv-x="1294" d="M-152 1329q0 68 107.5 131.5t187.5 63.5t90 -78q29 -135 54 -434q33 -301 61 -414q8 -20 20.5 -20t22.5 22q141 305 141 584q0 90 -19 131t-19 71.5t38 61.5q31 31 90.5 54.5t112.5 23.5t77 -14.5t37 -79t36 -351.5q41 -371 67 -483q8 -20 19.5 -20t25.5 22 q53 123 94.5 273.5t41.5 267t-50 188.5q-10 16 -10 39q0 66 97.5 111t186.5 45t89 -82l-2 -23q-39 -279 -133 -607.5t-168 -516.5l-76 -191q-70 -159 -248 -159h-2q-37 0 -62.5 18t-25.5 55q-51 602 -80 603q-10 0 -20 -23q-115 -375 -168 -494q-35 -72 -98.5 -115.5 t-151.5 -43.5q-37 0 -62.5 18.5t-25.5 54.5q-16 227 -60.5 504t-78.5 441l-35 161q-20 94 -60.5 134t-40.5 71z" />
<glyph unicode="X" horiz-adv-x="1036" d="M-68 31q0 27 35 65q68 66 163 238t157 311l59 139q10 27 10 56l-6 41q-68 287 -196 383q-43 33 -43 73q0 70 98 128.5t175 58.5t101 -78q37 -88 93 -279q8 -23 20 -22.5t20 18.5q84 182 107 271l6 18q4 12 30.5 36.5t77 42t124.5 17.5q114 0 114 -50q0 -26 -22.5 -50.5 t-55 -64.5t-123 -189.5t-169.5 -329.5q-12 -27 -12.5 -54.5t3.5 -37.5q45 -154 126 -306.5t145 -182.5l28 -13q29 -10 39.5 -20t10.5 -31q0 -84 -111 -177t-193 -93q-37 0 -63.5 19.5t-36.5 39.5l-8 21q-20 29 -67.5 162t-86.5 278q-6 20 -14 20q-12 0 -21 -16 q-61 -117 -141 -326l-24 -63q-47 -115 -198 -115t-151 62z" />
<glyph unicode="Y" horiz-adv-x="591" d="M-170 1348q0 74 107.5 123t189.5 49t98 -68q6 -23 29 -121q51 -238 96 -344q6 -16 14.5 -16t20.5 14q39 59 84 179.5t45 183.5l-8 55q0 47 65.5 91t196.5 44q96 0 96 -55q0 -25 -18.5 -71t-185 -363.5t-187.5 -374.5q-35 -98 -41 -199l-2 -35q8 -293 13.5 -313.5 t5.5 -36.5q0 -49 -48 -88q-98 -76 -266 -76q-70 0 -69 66l6 41q2 10 14 65.5t17.5 82t11.5 83.5q16 123 16 228q0 156 -12 208q-66 213 -123 367l-21 51q-35 102 -106 158q-39 33 -39 72z" />
<glyph unicode="Z" horiz-adv-x="849" d="M0 63q0 78 75 262.5t150 329.5l74 148q195 375 195 407.5t-52.5 32.5t-109 -27.5t-82.5 -56.5l-27 -26q-33 -41 -67 -41q-50 0 -50 130q0 125 48 199q33 51 108 64q131 16 278.5 16t200 -5t67.5 -8t39.5 -23.5t24.5 -59.5t-37.5 -97.5t-85 -141.5t-142.5 -304t-132 -399 q-4 -12 -4 -45q1 -58 99 -58h1q98 0 174 82q12 16 43 16.5t45.5 -23t14.5 -91.5q0 -358 -211 -373q-152 -16 -326 -16q-311 0 -311 108z" />
<glyph unicode="[" horiz-adv-x="370" d="M31 25v1394q0 14 16 44t41 55q63 63 201 118q31 12 56.5 12.5t25.5 -24.5q0 -27 -25 -63q-53 -80 -72 -105q-26 -57 -26 -84v-1300q0 -31 26 -84q94 -125 95 -168q0 -25 -29 -25l-51 12q-174 66 -240 168q-14 23 -18 50z" />
<glyph unicode="\" horiz-adv-x="765" d="M-248 1501q0 37 72 37q29 0 50.5 -9t33.5 -26l866 -1474q14 -18 14 -37q1 -39 -81 -39q-27 0 -47.5 13.5t-34.5 37.5l-867 1475q-6 12 -6 22z" />
<glyph unicode="]" horiz-adv-x="370" d="M0 1617q0 32 29 32l53 -13q113 -45 177.5 -99t72.5 -87l8 -31v-1394q0 -14 -16.5 -44t-40.5 -55q-70 -70 -201 -119q-29 -12 -54.5 -12t-25.5 34t94 159q27 55 27 84v1300q0 27 -27 84q-96 129 -96 161z" />
<glyph unicode="^" horiz-adv-x="837" d="M102 367.5q0 25.5 22.5 62.5t53.5 79t94.5 112.5t94.5 70.5h2q27 0 55 -33q4 -4 7 -4t11 11q25 27 45 26h9q31 0 84 -64.5t92 -127.5l37 -64q27 -45 26.5 -70.5t-22.5 -25.5q-17 0 -31 10q-205 188 -254 189q-25 0 -260 -174q-27 -23 -43 -23q-23 0 -23 25.5z" />
<glyph unicode="_" horiz-adv-x="970" d="M-61 -108.5q0 26.5 25.5 50t72.5 25.5q420 -2 645 -2l238 2q47 0 74.5 -23.5t27.5 -49t-21.5 -44t-54.5 -18.5l-276 2l-658 -2q-35 0 -54 16.5t-19 43z" />
<glyph unicode="`" d="M287 1268q0 35 33.5 74.5t65.5 39.5t73 -45q57 -63 88 -125q29 -47 28.5 -71.5t-22.5 -24.5q-14 0 -31 8q-133 85 -196 105q-35 12 -39 39z" />
<glyph unicode="a" d="M12 274q0 80 24.5 150t61.5 113t86 76.5t92 49t89 25.5q63 12 88 12l20 27q-2 70 -101.5 70t-162.5 -39q-25 -16 -49 -17q-49 0 -49 74q0 190 303 191q233 0 293 -156q26 -70 26 -193l-6 -284q0 -170 43 -197q27 -20 27 -53q0 -59 -79 -110.5t-161 -51.5 q-41 0 -61.5 17.5t-20.5 37.5q0 55 -14 56q-2 0 -25.5 -23.5t-70 -47.5t-117 -24t-124.5 35t-75 90q-37 92 -37 172zM293 332q0 -86 61.5 -86t99.5 63.5t38 112.5q0 92 -66 92q-59 0 -96 -59.5t-37 -122.5z" />
<glyph unicode="b" horiz-adv-x="819" d="M-31 1327q0 49 41 82l15 10q25 25 109.5 65t147 40t62.5 -58q-22 -185 -22 -519v-29q4 -14 11 -14.5t15 11.5q68 74 154 74t143 -50t88 -128q55 -152 55 -294t-38.5 -259t-133 -203t-225.5 -86q-86 0 -149.5 34t-99.5 85t-56 129q-35 123 -35 311l6 174q14 174 15 299 l-9 170q-4 35 -21 62t-46 47q-27 25 -27 47zM297 561.5q0 -59.5 11 -111t45 -99.5t85 -48t80 47t29 121t-41 159t-109 85q-45 0 -72.5 -47t-27.5 -106.5z" />
<glyph unicode="c" horiz-adv-x="743" d="M23 449q0 215 96 378q47 84 132 133.5t201.5 49.5t199.5 -60.5t83 -187.5q0 -152 -137 -152q-35 0 -58.5 26t-23.5 51.5t-3 43t-24.5 47t-54.5 29.5q-129 0 -129 -258q0 -78 14 -154q31 -143 115 -143q63 0 86 65q6 29 39 50.5t72 21.5q111 0 110 -135 q-2 -82 -34.5 -142.5t-72.5 -90t-97 -46.5q-74 -23 -162 -23h-4q-90 0 -163 43.5t-112 117.5q-73 137 -73 331v5z" />
<glyph unicode="d" horiz-adv-x="894" d="M33 444q0 186 94 359q47 82 127 134t176 52q45 0 74 -12l28 -12q14 0 17.5 32.5t3.5 85t-4 86t-10.5 50t-14.5 26.5q-12 16 -41 35q-27 18 -26 51q0 68 115.5 129.5t191.5 61.5q57 0 63 -52q4 -20 4 -81.5t-13 -250t-13 -360.5v-205l2 -104v-39l2 -49v-8q0 -109 65 -154 q31 -25 31 -53.5t-14 -48.5q-45 -66 -113 -105q-90 -53 -157.5 -53t-73.5 66q-4 51 -21 51l-14 -8q-70 -96 -184 -97q-84 0 -144.5 43t-91.5 117q-59 139 -59 313zM293 471q0 -127 88 -135q76 0 122 86t46 153q0 160 -88 160q-72 0 -120 -91t-48 -173z" />
<glyph unicode="e" horiz-adv-x="751" d="M64 709q40 125 139.5 212t235.5 87t213 -70t77 -211t-111.5 -233.5t-281.5 -92.5q-25 0 -25 -24q0 -49 36 -85t98.5 -36t112.5 57.5t88 57.5t60.5 -33t22.5 -93.5t-29.5 -121t-70.5 -91t-92 -48.5q-76 -29 -161 -29t-159 41t-115 110q-80 138 -80 306q1 170 42 297z M299 614q0 -12 8 -20q8 -10 21 -10q117 10 155 110q10 23 15 54q-2 71 -56 71h-2q-63 0 -97 -61.5t-44 -143.5z" />
<glyph unicode="f" horiz-adv-x="487" d="M2 1288q0 72 80 133q16 12 44 30.5t112 48.5t163 30q145 0 146 -80q0 -55 -45 -79.5t-82 -58.5t-51 -57l-13 -22q-29 -50 -29 -122q0 -70 7 -130q0 -27 41 -29q63 2 92 2q55 0 55 -59t-29.5 -124.5t-82.5 -70.5q-59 0 -74 -20q-10 -18 -10 -261t18 -357.5t18 -139 t-8 -41.5q-33 -63 -104 -102q-100 -51 -173 -51t-73 67l6 41q63 303 64 818v9q0 507 -54 562q-18 25 -18 63z" />
<glyph unicode="g" horiz-adv-x="874" d="M31 403.5q0 110.5 20.5 208t64.5 189.5t126 149.5t172 57.5t137 -41q6 -12 18.5 -12.5t20.5 12.5q76 96 178 96q63 0 63 -66q-37 -328 -37 -665q0 -5 0.5 -9.5t0.5 -9.5q0 -335 -36 -483q-36 -149 -139.5 -245.5t-246.5 -96.5q-84 0 -145.5 46t-61.5 128q0 51 27.5 81 t56.5 36l29 4q74 4 124 39t70 86q33 82 33 158v16q-2 14 -14 14l-21 -10q-27 -39 -66.5 -60.5t-68.5 -25.5l-27 -2q-88 0 -149.5 46t-85.5 120q-43 129 -43 239.5zM307 568q0 -87 36 -154.5t86 -67.5t82 54q31 51 31 138v5q-1 90 -37 155.5t-85 65.5t-81 -54.5t-32 -141.5z " />
<glyph unicode="h" horiz-adv-x="835" d="M-20 1329q0 70 114.5 131.5t181.5 61.5q76 0 76 -115q0 -84 -12 -237.5t-12 -225.5l2 -53q4 -14 12 -14t16 8q27 41 88.5 74.5t116.5 33.5q84 0 128 -65.5t57 -149.5q12 -143 12 -240.5t-4 -179.5q0 -145 65 -186q33 -18 33 -46t-14 -50q-33 -49 -97.5 -78t-111.5 -31 l-47 -4q-61 2 -82 35t-21 102l19 353q2 27 2 69q0 168 -76 168q-49 0 -76.5 -57.5t-31 -128t-3.5 -154.5l13 -254q0 -68 -47 -100q-72 -49 -175.5 -49t-103.5 67l6 37q66 317 66 844q2 74 2 163t-3 120.5t-19.5 57.5t-47.5 46q-27 20 -26 47z" />
<glyph unicode="i" horiz-adv-x="442" d="M12 831q0 70 106.5 124.5t179.5 54.5t75 -74q0 -51 -9.5 -183t-9.5 -245q0 -272 49 -342q29 -16 29 -51q0 -68 -74.5 -107t-169.5 -39q-125 0 -125 84q0 4 7 47q28 159 28 354v13l-6 203q0 33 -15.5 61.5t-40 51t-24.5 48.5zM37 1247q0 78 73.5 126t140 48t104.5 -26.5 t38 -73.5q0 -76 -72.5 -122t-140 -46t-105.5 25.5t-38 68.5z" />
<glyph unicode="j" horiz-adv-x="442" d="M-139 -266.5q0 26.5 15 47t46 26.5q53 0 92 35t52.5 63.5t13.5 37.5q31 162 31 454l-7 273q-2 33 -17 61.5t-39.5 51t-24.5 48.5q0 70 107.5 124.5t180 54.5t72.5 -92q0 -51 -10 -203q-11 -320 -11 -531l3 -161q0 -156 -27 -254q-35 -102 -111.5 -162t-163 -60t-133.5 38 t-57 75l-10 37q-2 10 -2 36.5zM51 1253q0 74 75 121t140.5 47t102.5 -26.5t39 -73.5q-6 -76 -76 -122t-135.5 -46t-105.5 26.5t-40 73.5z" />
<glyph unicode="k" horiz-adv-x="854" d="M-18 1331q0 66 108.5 128.5t183 62.5t76.5 -74q2 -25 2 -66l-22 -526q0 -61 2 -84.5t11 -23.5t17.5 8t83 101t116.5 130t91 37t97.5 -42t48.5 -90t-58 -50q-78 0 -118 -74q-9 -15 -9 -46q0 -32 22 -136q22 -106 74 -226t111 -137q53 -18 53 -57q0 -72 -87 -134.5 t-145 -62.5t-87 44t-62.5 179.5t-52.5 247.5l-18 113q-6 31 -23 31q-27 0 -45 -33t-21 -70t-3 -119.5t7 -165.5t7 -100q0 -68 -47 -100q-70 -49 -193 -49q-86 0 -86 69l7 35q55 289 55 844q2 74 2 163t-4 120.5t-20.5 57.5t-45 45t-28.5 50z" />
<glyph unicode="l" horiz-adv-x="458" d="M2 1331q0 68 115.5 129.5t181.5 61.5q74 0 74 -74q0 -121 -13.5 -312.5t-13.5 -408.5t5 -361.5t71 -191.5q35 -20 35 -63t-54 -80q-98 -68 -221 -68q-84 0 -104 70q-6 29 -6 68.5t3 91t7 133.5q18 369 18 582.5t-6 258.5q-8 74 -51 105l-14 10q-27 18 -27 49z" />
<glyph unicode="m" horiz-adv-x="1306" d="M0 829q0 66 108.5 127.5t171 61.5t66.5 -68q4 -29 6 -59q4 -14 15 -14q2 0 12 6q27 41 91.5 75.5t125.5 34.5q137 0 178 -135q4 -6 10.5 -6t14.5 10q78 131 235 131q129 0 162 -133q25 -98 25 -233l-11 -260q0 -158 70 -195q35 -18 35 -53q0 -59 -83 -107.5t-175 -48.5 t-107 70q-4 18 -4 94l12 326q2 20 3 55q0 180 -76 180q-49 0 -75 -58.5t-28 -109.5t-2 -131t3 -139.5t7.5 -95t4.5 -43.5q0 -61 -52.5 -102.5t-154 -41.5t-101.5 66l9 47q28 129 28 414v20q0 180 -78 180q-51 0 -77.5 -57.5t-26.5 -114.5l-4 -153q0 -143 6 -199.5t6 -71.5 q0 -68 -47 -100q-78 -53 -194 -53q-84 0 -84 71l4 33q53 250 53 627q0 33 -14.5 59.5t-44.5 48.5q-23 20 -23 45z" />
<glyph unicode="n" horiz-adv-x="901" d="M2 831q0 68 106.5 129.5t169 61.5t70.5 -68q4 -90 23 -90q6 0 14 6q8 14 25.5 35t76 54.5t134 33.5t125 -61.5t59.5 -145.5q4 -35 4 -114l-8 -303q0 -139 63 -191q37 -18 37 -46t-16 -50q-78 -111 -254 -111q-84 2 -99 68q-6 29 -6 89t11.5 190.5t11.5 191.5 q0 182 -82 182q-53 0 -83 -57.5t-30 -112.5l-4 -153q0 -61 6 -166l6 -105q0 -68 -47 -100q-76 -53 -194 -53q-84 0 -84 71l4 33q51 240 52 406v27q0 144 -10 194q-11 55 -46 93t-35 62z" />
<glyph unicode="o" horiz-adv-x="804" d="M23 446q0 201 92 377q45 88 125 143.5t180 55.5q178 0 271 -155.5t93 -381.5q0 -297 -170 -450q-94 -84 -208.5 -84t-189.5 47t-114 125q-80 152 -79 323zM272 475q0 -158 105 -158q57 0 109.5 72t52.5 197q0 61 -25 110t-81 49t-108.5 -78.5t-52.5 -191.5z" />
<glyph unicode="p" horiz-adv-x="880" d="M-31 -543l6 37q55 158 83 356.5t33 343t5 289t-2 189.5q-6 76 -53 102l-14 10q-27 25 -27 50q0 70 107.5 131t185.5 61q68 0 67 -121q6 -12 13.5 -12t15.5 11t21.5 26.5t57.5 40t109.5 24.5t127 -44t94.5 -120q61 -141 61 -344q0 -63 -23.5 -165.5t-56 -171t-100.5 -122 t-158 -53.5q-49 0 -88 16.5t-53 33.5l-16 14q-6 6 -13 6q-10 0 -14 -18q-6 -102 -6 -201.5t5 -158t5 -73.5q0 -68 -47 -104q-109 -92 -264 -92q-61 0 -62 59zM358 547q0 -88 36 -154.5t85 -66.5t82 54t33 143t-37 155.5t-86 66.5t-81 -55t-32 -143z" />
<glyph unicode="q" horiz-adv-x="901" d="M20 396.5q0 99.5 19.5 196.5t60.5 194.5t119 159t180 61.5q57 0 99.5 -16.5t56.5 -33.5l14 -16q8 -12 17 -12l20 12q20 33 70.5 60.5t111 27.5t60.5 -39q0 -10 -13.5 -58t-32 -171t-24.5 -201l-12 -160q2 -25 18 -24q6 0 26.5 9t51.5 9q39 0 39 -35q0 -25 -37 -95 t-49 -97q-35 -66 -47 -123l-14 -115q0 -264 43 -436q2 -10 2 -24q0 -70 -70 -70q-150 0 -246 90q-37 35 -37 88l7 41q31 156 41 408q-4 18 -11.5 18t-15.5 -6q-43 -63 -151 -63q0 -1 -1 -1q-106 0 -175 70q-70 70 -95 161t-25 190.5zM291 549q0 -88 37 -155.5t86 -67.5 t80.5 54t31.5 143t-36.5 155.5t-86 66.5t-81 -54t-31.5 -142z" />
<glyph unicode="r" horiz-adv-x="690" d="M0 844q0 63 101.5 123.5t163 60.5t69.5 -67q8 -47 8 -71t16 -24q10 0 15.5 9.5t10.5 18.5t23.5 32.5t38.5 40.5q53 47 119 47q43 0 86 -27q80 -49 80 -194q0 -92 -37 -160t-119 -68q-102 0 -102 113l2 31q0 35 -29 34q-108 0 -108 -307v-6q0 -82 16 -272l4 -52 q0 -68 -47 -100q-80 -55 -202 -55q-78 0 -78 67l6 35q49 242 49 592q0 106 -63 152q-23 14 -23 47z" />
<glyph unicode="s" horiz-adv-x="716" d="M0 182q0 72 41 124t102.5 52t87.5 -36q2 -2 12.5 -18.5t18.5 -24.5q27 -27 70 -27t67.5 21.5t24.5 58.5t-57.5 75.5t-126 67.5t-126 91.5t-57.5 146.5q0 143 93 228t243 85q270 0 271 -160q0 -45 -30 -75.5t-68 -30.5t-72.5 20.5t-77.5 20.5q-104 0 -105 -60 q0 -27 33 -45q242 -121 291 -196q59 -88 59 -211q0 -45 -20.5 -108.5t-55 -107.5t-110.5 -81t-180 -37q-74 0 -158 25q-170 49 -170 202z" />
<glyph unicode="t" horiz-adv-x="491" d="M-49 1085q0 37 37 74q113 70 207 219q29 39 71 39q70 0 70 -121l-4 -98q0 -53 23.5 -59t46 -6t67.5 4q43 0 43 -56q0 -104 -150 -161q-20 -8 -28 -37q-12 -125 -12 -293t12 -221q10 -49 74 -60q14 0 26 -14q23 -27 23 -52.5t-4 -49t-19.5 -65.5t-39 -78t-71 -62.5 t-106.5 -26.5q-102 0 -147 121q-16 47 -17 113l17 550q0 100 -11.5 164t-78.5 119q-29 20 -29 57z" />
<glyph unicode="u" horiz-adv-x="899" d="M0 850q0 63 102.5 117.5t157.5 54.5t74.5 -22.5t19.5 -82t-10 -187.5t-10 -155q0 -223 96 -223q70 0 94 146q10 53 11 118q0 131 -23 195q-23 29 -23 55q0 61 92.5 103.5t163 42.5t70.5 -71t-13.5 -220.5t-13.5 -236.5t2.5 -122.5t21.5 -106.5t52 -91q35 -16 35 -44 t-16 -50q-76 -104 -240 -105q-92 6 -104 70l-15 69q-2 14 -12 15l-16 -8q-74 -139 -226 -140q-213 5 -213 320l6 332q0 59 -10 103t-31.5 69.5t-21.5 54.5z" />
<glyph unicode="v" horiz-adv-x="821" d="M-39 825q0 61 101.5 121t167 60t77.5 -70q18 -74 39 -278.5t66 -284.5q8 -20 25.5 -20.5t31.5 16.5q98 111 98 282q0 49 -24.5 100.5t-57.5 69.5q-31 20 -30 47q0 61 84 114.5t154.5 53.5t99 -73.5t28.5 -161.5t-27.5 -185.5t-68.5 -173.5q-82 -152 -147 -235l-29 -35 q-166 -217 -258 -217q-121 0 -193 530q-14 106 -39.5 177t-44.5 88l-18 16q-35 27 -35 59z" />
<glyph unicode="w" horiz-adv-x="1286" d="M-41 827q0 59 101.5 119t165 60t75.5 -70q16 -74 37.5 -280.5t64.5 -288.5q14 -20 31 -20.5t29 18.5q76 94 86 202q-4 139 -35 209q-4 10 -25.5 37t-21.5 49q0 51 91 103.5t160.5 52.5t74.5 -72q14 -113 22 -229q27 -268 70 -350q10 -18 27.5 -18.5t35.5 20.5 q90 106 90 290q-8 119 -80 162q-31 20 -30 47q0 66 84 117t151.5 51t95 -73.5t27.5 -189.5t-65.5 -273.5t-153.5 -273t-173 -193.5t-126 -78q-43 0 -72 49q-35 63 -49 122.5t-20 89.5t-9 36q-6 10 -11 10t-11 -8q-215 -299 -311 -299q-68 0 -113 164q-37 139 -57.5 261 t-20.5 126q-18 98 -42.5 163.5t-39.5 80.5l-16 16q-37 29 -37 61z" />
<glyph unicode="x" horiz-adv-x="858" d="M-41 59q0 27 21 47q51 43 98 103q88 123 135 233l18 41q14 29 15 62l-6 33q-88 172 -189 223q-41 23 -41 55q0 55 80 106.5t144.5 51.5t97.5 -72q39 -63 98 -184q10 -27 24.5 -27t26.5 21q59 90 85 178t167 88t141 -68q0 -25 -13 -41t-17 -22t-21 -23l-22 -22 q-117 -135 -189 -297q-8 -18 -8 -44t22.5 -60.5t72 -84t77 -63.5t52 -21.5t43 -21.5t18.5 -49q0 -66 -74 -146t-166 -80l-28 2q-45 6 -94 74t-121 199q-10 20 -21 20q-18 0 -33 -22q-66 -115 -73 -193q-10 -96 -146 -96q-57 0 -115.5 24.5t-58.5 75.5z" />
<glyph unicode="y" horiz-adv-x="849" d="M0 852q0 59 109.5 114.5t166.5 55.5q78 0 78 -100q0 -74 -10 -175.5t-10 -187.5q0 -184 84 -184h8q102 0 102 295q0 84 -24 141q-23 29 -23 55q0 59 96.5 102.5t168 43.5t71.5 -70q0 -74 -10 -147q-18 -160 -19 -377l7 -256q0 -223 -30 -352t-131.5 -226.5t-244.5 -97.5 q-84 0 -147.5 47t-63.5 133q0 49 27.5 78t56.5 33l27 4q119 2 172 94t53 240q0 35 -10 35l-19 -9q-76 -139 -217 -139q-211 0 -211 291l6 340q0 96 -31.5 147t-31.5 72z" />
<glyph unicode="z" horiz-adv-x="731" d="M-8 86q0 37 18 74q27 86 125 250l33 57q-49 12 -49 59t52 94.5t114 49.5q14 0 53 75l12 25q4 8 4 18.5t-6 18.5q-12 10 -69 10q-117 0 -156 -31q-23 -18 -41 -18q-43 0 -43 61q0 43 20 109q25 61 120 70.5t215 9.5t165 -5t61.5 -9.5t43 -23.5t26.5 -60t-67 -117 q-103 -125 -103 -148q0 -4 11.5 -4t25.5 -13t14 -50t-38.5 -78t-86.5 -49q-6 0 -21 -16.5t-27.5 -51.5t-12.5 -41q0 -41 95 -41t145 41q27 18 49 19q47 0 47 -72q0 -90 -29 -176l-8 -29q-14 -41 -51 -67.5t-68 -32.5l-28 -6q-86 -12 -211 -13l-211 11q-123 10 -123 100z" />
<glyph unicode="{" horiz-adv-x="442" d="M0 719q0 14 12 22q109 82 109 344l-6 199q0 113 37.5 166t116.5 94t141 41q33 0 32 -24q0 -12 -49 -100.5t-54 -130.5t-5 -122l8 -184q0 -178 -143 -285q-12 -6 -12.5 -16t12.5 -18q143 -106 143 -287l-8 -182l6 -115q4 -51 53 -138t49 -102q0 -23 -30 -22 q-63 0 -144.5 43t-117 94t-35.5 164l6 205q0 260 -109 337q-12 8 -12 17z" />
<glyph unicode="|" horiz-adv-x="356" d="M82 20v9q29 1356 29 1474q0 37 59 37q104 0 104 -61l-28 -1475q0 -53 -66 -53q-37 0 -67.5 19t-30.5 50z" />
<glyph unicode="}" horiz-adv-x="442" d="M0 -117q0 12 49 100.5t54.5 130.5t5.5 122l-9 184q0 178 144 285q12 6 12 16t-12 18q-143 106 -144 287l9 182l-7 115q-4 51 -53 138t-49 102q0 23 31 22q63 0 144 -43t117 -94t36 -164l-6 -205q0 -260 108 -338q12 -8 12 -16q0 -14 -12 -23q-109 -82 -108 -344l6 -198 q0 -113 -38 -166t-117 -94t-140 -41q-33 0 -33 24z" />
<glyph unicode="~" horiz-adv-x="845" d="M57 482q0 40 48.5 90.5t111.5 50.5l395 -25q55 0 90 33q14 6 29 6q35 0 35 -49t-48 -113.5t-102 -64.5q-31 0 -199.5 27.5t-214.5 27.5t-74 -11.5t-38 -11.5q-33 0 -33 40z" />
<glyph unicode="&#xa1;" horiz-adv-x="471" d="M20 -285l13 52q125 304 125 753l-2 76q0 63 108 63q18 0 38 -2t50.5 -23.5t30.5 -60.5v-10q-8 -106 -8 -234t13 -248t26 -171l12 -49q12 -33 12 -62q0 -80 -89 -126t-181 -46q-147 0 -148 88zM96 893q0 80 72 127t139 47q140 0 144 -102q-6 -76 -76 -121t-137.5 -45 t-104.5 25.5t-37 68.5z" />
<glyph unicode="&#xa2;" horiz-adv-x="757" d="M20 445.5q0 191.5 90.5 352t258.5 199.5v80q0 23 17 39.5t48 16.5q55 0 55 -41v-86q90 -6 162 -57.5t82 -176.5q0 -162 -137 -162q-37 0 -60.5 26t-23.5 51.5t-3 43t-23.5 46t-62.5 28.5t-74 -47t-40 -98.5t-8 -102.5t5 -94t17.5 -94.5t40 -83t66.5 -31.5q63 0 86 63 q6 27 39 50.5t72 23.5q111 0 110 -137q-10 -244 -248 -289v-86q0 -20 -21.5 -37.5t-55.5 -17.5q-43 0 -43 43v88q-197 8 -279 164q-70 135 -70 326.5z" />
<glyph unicode="&#xa3;" horiz-adv-x="761" d="M-70 807q0 39 14.5 56.5t41.5 19.5h96l-8 250q-4 74 -47 133q-27 27 -27 55q0 68 124 133.5t193.5 65.5t69.5 -58q-27 -205 -31 -317.5t-6 -261.5h176q45 0 45 -39q0 -31 -15 -51.5t-48 -30.5h-158v-88q0 -260 3 -272.5t8.5 -22.5t15.5 -19q25 -18 76 -18q113 0 180 78 q33 33 65 33q63 0 64 -121q0 -193 -76 -279t-362 -86q-131 0 -198 14.5t-81 32t-14 49.5l4 31q43 236 47 668h-113q-39 6 -39 45z" />
<glyph unicode="&#xa4;" horiz-adv-x="1519" d="M311 305q0 6 8 27q66 98 142 209q-37 63 -37 147q0 147 92 250q-147 201 -147 227q0 41 123 41q49 0 61 -27.5t94 -144.5q80 37 171 37t173 -41l66 103q20 37 78 36q115 0 114 -30q0 -6 -8 -27l-133 -197q39 -68 39 -155q0 -140 -92 -238q139 -193 139 -213t-45 -31.5 t-85 -11.5t-58 35l-84 129q-86 -35 -176.5 -35t-161.5 35l-86 -127q-27 -33 -84 -33q-102 0 -103 35zM594 723q0 -92 54 -139t132 -47t137.5 51t59.5 143t-53.5 143.5t-130 51.5t-138 -55.5t-61.5 -147.5z" />
<glyph unicode="&#xa5;" horiz-adv-x="591" d="M-170 1348q0 74 107.5 123t189.5 49t98 -68q6 -27 27 -121q47 -219 94 -336h45q41 63 82 177.5t41 175.5l-8 55q0 47 65.5 91t196.5 44q96 0 96 -55q0 -25 -10 -47q-31 -82 -221 -441h61q47 0 47 -45q-4 -31 -19 -50t-44 -26h-109q-18 -39 -53 -108h164q61 0 61 -43 q0 -23 -18 -46.5t-45 -31.5h-215q-29 -78 -33 -174v-31q8 -293 13.5 -313.5t5.5 -36.5q0 -49 -48 -88q-98 -76 -266 -76q-70 0 -69 66l6 41q2 10 14 65.5t17.5 82t11.5 83.5q16 123 16 227.5t-4 153.5h-184q-41 4 -41 45q0 27 14 47q23 29 43 29h139q-12 39 -37 108h-118 q-14 0 -27.5 12.5t-13.5 35t14 41.5q23 33 43 32h61l-45 123q-35 102 -106 158q-39 33 -39 72z" />
<glyph unicode="&#xa6;" horiz-adv-x="356" d="M78 25l2 116q2 117 5 255.5t3 191.5q0 37 59 37q104 0 105 -62l-10 -555q0 -53 -66 -53q-37 0 -67.5 19.5t-30.5 50.5zM100 940l2 117q8 272 9 446q0 37 59 37q104 0 104 -61l-10 -555q0 -53 -65 -54q-37 0 -68 19.5t-31 50.5z" />
<glyph unicode="&#xa7;" horiz-adv-x="1013" d="M33 635.5q0 60.5 38 115t93 89.5q115 78 201 106l36 15q20 6 21 16l-10 16q-201 76 -201 209q0 41 35 94.5t81 89t137 63.5t212 28q162 0 162 -72q0 -12 -20.5 -28.5t-43 -20.5t-39 -7t-58.5 -13.5t-74 -24t-58.5 -37t-26.5 -55t50 -58t122 -49t143.5 -51.5t122 -83 t50.5 -130q0 -160 -283 -299q-20 -12 -20.5 -23.5t16 -20.5t41 -27.5t64.5 -65.5t40 -84q0 -104 -91 -185.5t-202.5 -118t-185.5 -36.5q-172 0 -172 73q0 41 92 62q111 23 164 86q23 27 23 62.5t-47.5 68.5t-115 57.5t-135 53t-114.5 76.5t-47 108.5zM369 698 q0 -45 33.5 -67.5t88 -22.5t125 58.5t70.5 113.5q0 33 -30.5 57.5t-81 24.5t-128 -45t-77.5 -119z" />
<glyph unicode="&#xa8;" d="M115 1202q0 45 49 85t95 40t72.5 -22.5t26.5 -68.5t-48 -86t-94 -40t-73.5 23.5t-27.5 68.5zM485 1202q0 45 49.5 85t95.5 40t72.5 -22.5t26.5 -68.5t-48 -86t-94 -40t-74 23.5t-28 68.5z" />
<glyph unicode="&#xa9;" horiz-adv-x="1269" d="M33 461q0 180 98 332.5t251 229.5t325 77q227 0 396 -136.5t169 -404.5t-206 -440t-474 -172q-319 0 -475 217q-84 117 -84 297zM207 502q0 -215 126 -329t306 -114t317.5 121t137.5 340t-122 338t-302.5 119t-321.5 -130t-141 -345zM381 496.5q0 158.5 75.5 279.5 t231.5 121q88 0 147.5 -44t59.5 -136q0 -111 -98 -111q-25 0 -42.5 19.5t-17.5 37t-2 31t-17.5 35t-39.5 21.5q-92 0 -92 -201t92 -201q47 0 63 47q17 51 80 51q80 0 80 -98q-2 -59 -25.5 -103t-52 -64.5t-69.5 -33.5q-55 -16 -113 -16q-139 0 -199.5 103.5t-60.5 262z" />
<glyph unicode="&#xaa;" horiz-adv-x="677" d="M61 803q0 71 35 137t80 96.5t98 48.5q74 25 117 25q16 4 17 16v4q-2 53 -77 53.5t-108 -21t-51 -21.5q-37 0 -37 55q0 143 227 143q125 0 182.5 -63.5t57.5 -196.5l-4 -215q0 -127 31 -147q20 -14 20 -39q0 -45 -59.5 -83t-110.5 -38t-62 20.5t-10 41t-5.5 20.5 t-24.5 -16q-51 -53 -121 -53.5t-111 25.5t-57 69q-27 68 -27 139zM272 826.5q0 -56.5 45 -56.5t74 48t29 100.5t-49 52.5q-43 0 -71 -44t-28 -100.5z" />
<glyph unicode="&#xab;" horiz-adv-x="1142" d="M41 491q0 29 20 54q276 344 353 370q47 16 124.5 16.5t77.5 -32.5q0 -20 -34 -49q-12 -12 -34 -31.5t-76 -74t-95 -98.5t-75 -90t-34 -71.5t78 -114.5t158 -163l78 -74q35 -29 34 -43q0 -27 -24 -33q-33 -8 -76 -8q-80 0 -106 19q-35 10 -122 103t-157 181l-72 90 q-18 20 -18 49zM543 492q0 30 25.5 61t73.5 89t144.5 160.5t131.5 112.5q29 16 115.5 16.5t86.5 -32.5q0 -20 -35 -49q-12 -12 -33.5 -31.5t-75.5 -74t-95 -97.5q-109 -117 -109 -152.5t78 -124.5t156 -163l77 -74q35 -28 35 -51q0 -33 -110 -33q-49 0 -90 16.5 t-129.5 110.5t-157.5 180l-68 86q-20 20 -20 50z" />
<glyph unicode="&#xac;" horiz-adv-x="970" d="M57 504q0 33 18.5 61.5t55.5 30.5q326 -2 494 -2t188 2q37 -2 57.5 -28.5t20.5 -61.5l4 -318q0 -33 -24.5 -49t-47 -16t-37 3t-37 24.5t-22.5 58.5v223h-106l-508 -4q-27 0 -41.5 21.5t-14.5 54.5z" />
<glyph unicode="&#xad;" horiz-adv-x="970" d="M57 504q0 33 18.5 61.5t55.5 30.5q326 -2 494 -2t188 2q37 -2 57.5 -28.5t20.5 -59.5t-15 -55.5t-42 -24.5q-39 4 -213 4l-508 -4q-27 0 -41.5 21.5t-14.5 54.5z" />
<glyph unicode="&#xae;" horiz-adv-x="1269" d="M33 461q0 180 98 332.5t251 229.5t325 77q227 0 396 -136.5t169 -404.5t-206 -440t-474 -172q-319 0 -475 217q-84 117 -84 297zM207 502q0 -215 126 -329t306 -114t317.5 121t137.5 340t-122 338t-302.5 119t-321.5 -130t-141 -345zM399 797q0 45 89.5 72.5t142.5 27.5 t83.5 -5t70.5 -18.5t64.5 -46t24.5 -79.5q1 -95 -83 -158q-16 -8 -16.5 -21.5t1.5 -15.5q20 -117 64 -229q12 -35 39.5 -51.5t27.5 -36.5q0 -33 -48 -53.5t-77.5 -20.5t-44 9t-21.5 19.5t-9 10.5q-27 57 -42.5 168.5t-15.5 118t-21.5 6.5t-35.5 -21q-8 -23 -8 -100.5t6 -106 t6 -37.5q0 -35 -52 -58.5t-93 -23.5t-41 31l2 21q29 182 28 366l-6 142q0 23 -17.5 49t-17.5 41zM584 616q4 -16 20 -16q7 0 23 6q74 41 73.5 117t-58.5 76t-58 -142v-41z" />
<glyph unicode="&#xaf;" d="M137 1147q0 25 13.5 44t37.5 21h486q55 0 55 -57t-41 -61q-29 2 -151 2l-361 -2q-39 0 -39 53z" />
<glyph unicode="&#xb0;" horiz-adv-x="583" d="M31 1041.5q0 156.5 78.5 295t201.5 138.5q68 0 118 -38t75 -98q49 -115 49 -257t-68.5 -267t-198.5 -125t-192.5 97.5t-62.5 254zM205 1128q0 -94 30.5 -141t70.5 -47t64.5 38t24.5 123t-28.5 158.5t-75.5 73.5q-86 0 -86 -205z" />
<glyph unicode="&#xb1;" horiz-adv-x="983" d="M31 829q0 51 45 72q18 8 97 7t237 -1v66l-2 133q0 33 20.5 52.5t40.5 21.5l20 4q90 0 86 -58q-4 -90 -4 -219h68q203 0 238 2q63 0 75 -80q0 -86 -59 -88q-45 4 -262 4h-60l4 -213q0 -33 -24.5 -49t-47 -16t-36.5 3t-36.5 24.5t-22.5 56.5t2 192l-314 -2q-66 0 -65 88z M33 336q0 33 18.5 61.5t54.5 30.5q412 -2 580 -2t188 2q37 -2 57.5 -28.5t20.5 -59.5t-15 -55.5t-42 -24.5q-39 4 -213 4l-594 -4q-27 0 -41 21.5t-14 54.5z" />
<glyph unicode="&#xb2;" horiz-adv-x="610" d="M41 522q0 88 94 258q4 8 51 90t74 130.5t53.5 118t26.5 107.5t-16.5 57.5t-49 21.5t-57 -14.5t-43 -48.5t-51.5 -32q-41 0 -41 82q0 123 68.5 168t181.5 45q139 0 200 -98q23 -39 23 -85t-5 -78t-21.5 -67.5t-24.5 -52.5q-20 -41 -74 -120l-127 -230q-10 -20 -10 -37 q0 -33 47 -32q90 0 119 36q41 53 69 54q41 0 41 -62q0 -205 -61 -254q-25 -29 -229 -28l-170 4q-68 2 -68 67z" />
<glyph unicode="&#xb3;" horiz-adv-x="583" d="M41 614q0 41 14 123q10 49 49 49q20 0 35 -18q29 -41 85.5 -41t85 37t28.5 89t-43 80t-100 28l-29 -3q-33 0 -33 52l8 59q14 61 61.5 61t80 36t32.5 79q0 86 -84 86q-35 0 -71 -33q-23 -25 -45 -24q-41 0 -41 63q0 172 221 172q158 0 215 -108q23 -41 21.5 -94.5 t-15.5 -94.5t-37 -65q-45 -49 -90 -66q-10 -4 -10 -14l8 -12q156 -59 156 -252q0 -96 -27 -167t-61.5 -104.5t-79.5 -52.5q-59 -27 -136 -26.5t-137.5 32t-60.5 129.5z" />
<glyph unicode="&#xb4;" d="M389 1151q0 35 70.5 133t120.5 98q32 0 65 -41t33 -70.5t-33 -39.5q-61 -18 -168 -84l-35 -23q-18 -8 -30 -8q-23 0 -23 35z" />
<glyph unicode="&#xb5;" horiz-adv-x="899" d="M-186 -254q0 27 15 47.5t46 26.5q53 0 92 34.5t52.5 63.5t13.5 37q28 145 28 358l-4 369q-2 33 -17 61.5t-40 51t-25 49.5q0 70 107.5 124t179.5 54h12q41 0 60.5 -22.5t19.5 -82t-10 -187.5t-10 -155q0 -223 96 -223q70 0 94 146q10 53 11 118q0 131 -23 195 q-23 29 -23 55q0 61 92.5 103.5t163 42.5t70.5 -71t-13.5 -220.5t-13.5 -236.5t2.5 -122.5t21.5 -106.5t52 -91q35 -16 35 -44t-16 -50q-76 -104 -240 -105q-92 6 -104 70l-15 69q-2 14 -12 15l-16 -8q-63 -117 -181 -136q-4 -113 -24 -194q-35 -102 -112 -161.5t-163 -59.5 t-133 37.5t-57 74.5l-10 37q-2 10 -2 37z" />
<glyph unicode="&#xb6;" horiz-adv-x="876" d="M0 1087q0 180 146.5 287t365.5 107q342 0 342 -129l-6 -72q-41 -313 -41 -819l2 -211q8 -96 27 -152q14 -27 14 -45q0 -66 -102 -65q-35 0 -56.5 14t-33 52t-11.5 188.5t3 280.5t8.5 249t9.5 221q12 225 12 234q0 86 -59 86q-25 0 -38.5 -16.5t-22.5 -69.5t-18.5 -342 t-11.5 -541l-2 -252q0 -111 -61 -110q-117 0 -117 157q0 41 13.5 167t13.5 196l-4 63q-2 49 -32 89t-53.5 54.5t-62.5 34.5q-225 117 -225 344z" />
<glyph unicode="&#xb7;" horiz-adv-x="387" d="M33 498q0 63 61.5 110t127 47t98 -24.5t33.5 -74.5t-61.5 -97t-127 -47t-98 23.5t-33.5 62.5z" />
<glyph unicode="&#xb8;" horiz-adv-x="739" d="M297 -107.5q0 25.5 43 53t80 27.5t37 -16q-47 -16 -47 -41q0 -16 41 -38.5t41 -61.5t-47.5 -63.5t-91.5 -24.5t-44 12q0 18 30 39.5t30 40t-36 33t-36 40z" />
<glyph unicode="&#xb9;" horiz-adv-x="411" d="M41 1317q0 51 106.5 118.5t159.5 67.5t53 -49q0 -16 -6 -180t-6 -385t17 -301q6 -10 6 -25q0 -51 -73 -84t-126 -33t-53 50l4 26q35 244 35 488l-6 190q-1 54 -64 68q-47 12 -47 49z" />
<glyph unicode="&#xba;" horiz-adv-x="673" d="M61 881.5q0 119.5 29 214t100.5 167t169.5 72.5q133 0 203 -116.5t70 -280.5t-76 -286t-218 -122t-210 116t-68 235.5zM250 924q0 -117 78 -117q43 0 82 53t39 123t-18.5 106.5t-60.5 36.5t-81 -59t-39 -143z" />
<glyph unicode="&#xbb;" horiz-adv-x="1138" d="M10 899q0 33 99 33q68 0 104 -17q35 -10 123 -102t160 -180l71 -88q20 -23 21 -45q0 -33 -21 -58q-266 -342 -350 -374q-45 -18 -86 -18.5t-80 4.5t-39 27.5t35 51.5q12 12 33.5 31.5t75 73t94.5 98.5t74.5 90t33.5 70.5t-77.5 114.5t-157.5 163l-78 76q-35 29 -35 49z M514 84q0 20 35 49q12 12 33.5 31.5t76 73t95.5 98.5t74.5 90t33.5 70.5t-78.5 114.5t-156.5 163l-78 76q-35 29 -35 49q0 33 78 33t118 -14.5t128 -106.5t159 -180l72 -86q20 -27 21 -45q0 -35 -25 -66t-72 -90t-142 -162.5t-130 -113.5q-23 -18 -74 -19q-133 0 -133 35z " />
<glyph unicode="&#xbc;" horiz-adv-x="1337" d="M41 1317q0 51 106.5 118.5t159.5 67.5t53 -49q0 -16 -6 -180t-6 -385t17 -301q6 -10 6 -25q0 -51 -73 -84t-126 -33t-53 50l4 26q35 244 35 488l-6 190q-1 54 -64 68q-47 12 -47 49zM297 10l399 1477q20 61 113 61q41 1 41 -32l-395 -1461q-10 -55 -68 -71q-27 -8 -49 -9 q-41 0 -41 35zM639 338q16 113 104 286t154 269l68 94q45 57 172 57q63 0 63 -43q0 -6 -16.5 -78.5t-17.5 -135t-1 -183.5v-94q0 -10 25 -10l31 2q29 0 28 -31q0 -141 -63 -188q-14 -4 -15 -25l-2 -27q0 -57 17 -122q6 -10 6 -25q0 -47 -63.5 -71.5t-121 -24.5t-57.5 49 l6 24q25 78 25 175q0 18 -22.5 17t-75.5 -1l-142 4q-102 0 -102 82zM874 514q0 -31 59.5 -31t59.5 23v92l-2 135q-4 12 -12 12t-18 -14q-87 -156 -87 -217z" />
<glyph unicode="&#xbd;" horiz-adv-x="1337" d="M41 1317q0 51 106.5 118.5t159.5 67.5t53 -49q0 -16 -6 -180t-6 -385t17 -301q6 -10 6 -25q0 -51 -73 -84t-126 -33t-53 50l4 26q35 244 35 488l-6 190q-1 54 -64 68q-47 12 -47 49zM297 10l399 1477q20 61 113 61q41 1 41 -32l-395 -1461q-10 -55 -68 -71q-27 -8 -49 -9 q-41 0 -41 35zM729 76q0 88 94 258q4 8 51.5 90t74 130t53 117.5t26.5 107.5t-16.5 57.5t-49 21.5t-57 -14.5t-43 -48t-51.5 -31.5q-41 0 -41 82q0 123 68.5 168t181.5 45q140 0 201 -98q23 -39 22.5 -85.5t-5.5 -78t-21.5 -67.5t-24.5 -52q-20 -41 -74 -121l-127 -229 q-10 -20 -10 -37q0 -33 47 -33q90 0 119 37q41 53 70 53q41 0 40 -61q0 -205 -61 -254q-25 -29 -229 -29l-170 4q-68 2 -68 68z" />
<glyph unicode="&#xbe;" horiz-adv-x="1462" d="M41 614q0 41 14 123q10 49 49 49q20 0 35 -18q29 -41 85.5 -41t85 37t28.5 89t-43 80t-100 28l-29 -3q-33 0 -33 52l8 59q14 61 61.5 61t80 36t32.5 79q0 86 -84 86q-35 0 -71 -33q-23 -25 -45 -24q-41 0 -41 63q0 172 221 172q158 0 215 -108q23 -41 21.5 -94.5 t-15.5 -94.5t-37 -65q-45 -49 -90 -66q-10 -4 -10 -14l8 -12q156 -59 156 -252q0 -96 -27 -167t-61.5 -104.5t-79.5 -52.5q-59 -27 -136 -26.5t-137.5 32t-60.5 129.5zM422 10l399 1477q20 61 113 61q41 1 41 -32l-395 -1461q-10 -55 -68 -71q-27 -8 -49 -9q-41 0 -41 35z M764 338q16 113 104 286t156 269l66 94q45 57 172 57q63 0 63 -43q0 -6 -16.5 -78.5t-17.5 -135t-1 -183.5v-94q0 -10 25 -10l31 2q29 0 28 -31q0 -141 -63 -188q-14 -4 -15 -25l-2 -27q0 -57 17 -122q6 -10 6 -25q0 -47 -63.5 -71.5t-121 -24.5t-57.5 49l6 24q25 78 25 175 q0 18 -22.5 17t-75.5 -1l-142 4q-102 0 -102 82zM999 514q0 -31 59.5 -31t59.5 23v92l-2 135q-4 12 -12 12t-19 -14q-86 -156 -86 -217z" />
<glyph unicode="&#xbf;" horiz-adv-x="559" d="M-55 -119q0 82 42 162t91 135q133 150 133 252q0 47 -14.5 83t-14.5 56q0 82 166 82q51 0 107.5 -31.5t56.5 -82.5q0 -94 -115 -244q-55 -68 -96 -149t-41 -130q0 -12 2 -29.5t28.5 -46t74.5 -28.5q35 0 73.5 24.5t57.5 65.5q18 29 56 29t59.5 -53.5t21.5 -100.5 q0 -127 -106.5 -204t-248 -77t-237.5 75t-96 212zM178 897q0 80 73 127t140.5 47t104.5 -26.5t39 -73.5q-6 -74 -76 -121t-136.5 -47t-105.5 26.5t-39 67.5z" />
<glyph unicode="&#xc0;" horiz-adv-x="1056" d="M-90 -4q0 43 33 94l12 19q152 276 275.5 693t123.5 507q0 35 -11 60.5t-11 39.5q0 102 176 102q109 0 187.5 -42t99.5 -132q86 -676 151 -909q48 -203 101 -240q35 -25 34 -63q0 -76 -101 -127t-187 -51q-68 0 -99 30q-25 25 -26.5 73t-3.5 103.5t-3.5 100.5t-19.5 76.5 t-35 38.5q-18 8 -101 8t-128 -19q-45 -20 -86 -190q-10 -41 -12 -45q-55 -186 -269 -186q-100 0 -100 59zM383 1677q0 35 34 75t65.5 40t72.5 -45q57 -63 88 -125q29 -47 29 -71.5t-23 -24.5q-14 0 -31 8q-133 84 -196 104q-35 12 -39 39zM422 653q0 -25 16.5 -31t61.5 -6 t64.5 11.5t19.5 38.5q-16 180 -37 264l-6 22q-2 25 -15 25q-6 0 -20 -19q-84 -221 -84 -305z" />
<glyph unicode="&#xc1;" horiz-adv-x="1056" d="M-90 -4q0 43 33 94l12 19q152 276 275.5 693t123.5 507q0 35 -11 60.5t-11 39.5q0 102 176 102q109 0 187.5 -42t99.5 -132q86 -676 151 -909q48 -203 101 -240q35 -25 34 -63q0 -76 -101 -127t-187 -51q-68 0 -99 30q-25 25 -26.5 73t-3.5 103.5t-3.5 100.5t-19.5 76.5 t-35 38.5q-18 8 -101 8t-128 -19q-45 -20 -86 -190q-10 -41 -12 -45q-55 -186 -269 -186q-100 0 -100 59zM422 653q0 -25 16.5 -31t61.5 -6t64.5 11.5t19.5 38.5q-16 180 -37 264l-6 22q-2 25 -15 25q-6 0 -20 -19q-84 -221 -84 -305zM442 1597.5q0 34.5 71 133t120 98.5 q33 0 65.5 -41t32.5 -70.5t-33 -40.5q-61 -18 -168 -84l-34 -22q-18 -8 -31 -8q-23 0 -23 34.5z" />
<glyph unicode="&#xc2;" horiz-adv-x="1056" d="M-90 -4q0 43 33 94l12 19q152 276 275.5 693t123.5 507q0 35 -11 60.5t-11 39.5q0 102 176 102q109 0 187.5 -42t99.5 -132q86 -676 151 -909q48 -203 101 -240q35 -25 34 -63q0 -76 -101 -127t-187 -51q-68 0 -99 30q-25 25 -26.5 73t-3.5 103.5t-3.5 100.5t-19.5 76.5 t-35 38.5q-18 8 -101 8t-128 -19q-45 -20 -86 -190q-10 -41 -12 -45q-55 -186 -269 -186q-100 0 -100 59zM282.5 1565.5q0.5 25.5 18.5 57.5t34.5 60.5t58.5 76.5t73 48h2q27 0 55 -32q4 -4 7.5 -4t13.5 10q23 27 45 26h6q31 0 70 -43t63 -86l25 -43q27 -45 26.5 -70.5 t-22.5 -25.5q-17 0 -31 10q-160 104 -199 105q-12 0 -111.5 -57.5t-111.5 -57.5q-23 0 -22.5 25.5zM422 653q0 -25 16.5 -31t61.5 -6t64.5 11.5t19.5 38.5q-16 180 -37 264l-6 22q-2 25 -15 25q-6 0 -20 -19q-84 -221 -84 -305z" />
<glyph unicode="&#xc3;" horiz-adv-x="1056" d="M-90 -4q0 43 33 94l12 19q152 276 275.5 693t123.5 507q0 35 -11 60.5t-11 39.5q0 102 176 102q109 0 187.5 -42t99.5 -132q86 -676 151 -909q48 -203 101 -240q35 -25 34 -63q0 -76 -101 -127t-187 -51q-68 0 -99 30q-25 25 -26.5 73t-3.5 103.5t-3.5 100.5t-19.5 76.5 t-35 38.5q-18 8 -101 8t-128 -19q-45 -20 -86 -190q-10 -41 -12 -45q-55 -186 -269 -186q-100 0 -100 59zM276 1624q0 41 69 94.5t159 53.5q37 0 101.5 -14.5t111.5 -14.5t90 31q18 10 39 10q33 0 33 -35q-1 -92 -99 -176q-39 -33 -77.5 -33t-116.5 33t-135.5 33t-91 -11.5 t-48.5 -11.5q-35 0 -35 41zM422 653q0 -25 16.5 -31t61.5 -6t64.5 11.5t19.5 38.5q-16 180 -37 264l-6 22q-2 25 -15 25q-6 0 -20 -19q-84 -221 -84 -305z" />
<glyph unicode="&#xc4;" horiz-adv-x="1056" d="M-90 -4q0 43 33 94l12 19q152 276 275.5 693t123.5 507q0 35 -11 60.5t-11 39.5q0 102 176 102q109 0 187.5 -42t99.5 -132q86 -676 151 -909q48 -203 101 -240q35 -25 34 -63q0 -76 -101 -127t-187 -51q-68 0 -99 30q-25 25 -26.5 73t-3.5 103.5t-3.5 100.5t-19.5 76.5 t-35 38.5q-18 8 -101 8t-128 -19q-45 -20 -86 -190q-10 -41 -12 -45q-55 -186 -269 -186q-100 0 -100 59zM221 1653q0 45 49 85t95.5 40t73 -22.5t26.5 -69t-48 -86t-94.5 -39.5t-74 23.5t-27.5 68.5zM422 653q0 -25 16.5 -31t61.5 -6t64.5 11.5t19.5 38.5q-16 180 -37 264 l-6 22q-2 25 -15 25q-6 0 -20 -19q-84 -221 -84 -305zM592 1653q0 45 49 85t95 40t73 -22.5t27 -69t-48.5 -86t-94.5 -39.5t-73.5 23.5t-27.5 68.5z" />
<glyph unicode="&#xc5;" horiz-adv-x="1056" d="M-90 -4q0 43 33 94l12 19q152 276 275.5 693t123.5 507q0 35 -11 60.5t-11 39.5q0 102 176 102q109 0 187.5 -42t99.5 -132q86 -676 151 -909q48 -203 101 -240q35 -25 34 -63q0 -76 -101 -127t-187 -51q-68 0 -99 30q-25 25 -26.5 73t-3.5 103.5t-3.5 100.5t-19.5 76.5 t-35 38.5q-18 8 -101 8t-128 -19q-45 -20 -86 -190q-10 -41 -12 -45q-55 -186 -269 -186q-100 0 -100 59zM392 1676.5q-1 56.5 58.5 112.5t124 56t99.5 -28.5t35 -85t-60.5 -110.5t-124 -54t-97.5 26.5t-35 83zM422 653q0 -25 16.5 -31t61.5 -6t64.5 11.5t19.5 38.5 q-16 180 -37 264l-6 22q-2 25 -15 25q-6 0 -20 -19q-84 -221 -84 -305zM479 1694q0 -49 53 -49q35 0 62 23.5t27 47.5q0 51 -54 51q-35 0 -61.5 -24.5t-26.5 -48.5z" />
<glyph unicode="&#xc6;" horiz-adv-x="1398" d="M-90 -4q0 43 33 94l12 19q152 276 275.5 693t123.5 507q0 35 -11 60.5t-11 39.5q0 102 176 102q109 0 187.5 -42t99.5 -132v-16l8 10q74 100 166 141t233 41t170 -72.5t29 -119.5q0 -111 -70 -111q-18 0 -59 20.5t-98 20.5q-100 0 -161 -74.5t-61 -168.5q0 -27 58.5 -29 t134.5 -2l94 2q57 0 57 -71.5t-64.5 -117t-160.5 -49.5q-125 0 -133 -49q-6 -39 -6 -90t8 -94t31 -90q49 -100 184 -101q59 0 94 26t68 26t51 -34t18 -73q0 -131 -100 -209t-242 -78q-45 0 -92 11q-88 -39 -142 -39t-78.5 9t-37 21.5t-19.5 44t-8 54t-3 78t-3.5 100.5 t-19.5 76.5t-35 38.5q-18 8 -101 8t-128 -19q-45 -20 -86 -190q-10 -41 -12 -45q-55 -186 -269 -186q-100 0 -100 59zM422 653q0 -25 16.5 -31t61.5 -6t64.5 11.5t19.5 38.5q-10 61 -11 94l-32 192q-2 25 -15 25q-6 0 -20 -19q-84 -221 -84 -305z" />
<glyph unicode="&#xc7;" horiz-adv-x="845" d="M20 565q0 117 7.5 207t26 199.5t54 201t87 170t132.5 123.5t159.5 45t114.5 -10t51.5 -10t51 16.5t88 16.5t52.5 -43q0 -2 -16.5 -89t-16.5 -178.5t16.5 -121t16.5 -56.5q0 -51 -47 -79.5t-103 -28.5q-143 0 -143 147q0 33 12 88.5t12 71.5q0 43 -47 43q-66 0 -131 -119 q-76 -137 -75 -401q0 -115 24 -205q47 -170 156 -170q94 0 145 102q23 49 76 49.5t88 -59.5t35 -119q0 -158 -88 -265t-234 -128q-18 -2 -38.5 -15.5t-20.5 -32.5t49 -49t49 -65q0 -55 -54 -85.5t-109.5 -30.5t-55.5 18t41 51q33 23 33 41q0 25 -43 42.5t-43 41t30.5 47 t30.5 35.5q-98 10 -170.5 66.5t-109.5 126t-60 161.5q-33 133 -33 250z" />
<glyph unicode="&#xc8;" horiz-adv-x="829" d="M2 756q0 53 32 118.5t75 83.5q8 88 40.5 193.5t94.5 189.5q121 166 372 166q156 0 184.5 -72.5t28.5 -119.5q0 -111 -69 -111q-18 0 -59.5 20.5t-98.5 20.5q-100 0 -160.5 -74.5t-60.5 -169.5q0 -27 58 -28.5t134 -1.5l95 2q57 0 57 -72t-64.5 -117t-160.5 -49 q-125 0 -133 -49q-6 -39 -6.5 -90t8 -94t30.5 -88q49 -102 185 -103q59 0 94 25.5t67.5 25.5t51 -33.5t18.5 -72.5q0 -131 -110.5 -216t-251.5 -85q-389 0 -390 575l9 158q-70 0 -70 68zM346 1714q0 35 34 75t65.5 40t72.5 -45q57 -63 88 -125q29 -47 29 -71.5t-23 -24.5 q-14 0 -30 8q-134 84 -197 104q-35 12 -39 39z" />
<glyph unicode="&#xc9;" horiz-adv-x="829" d="M2 756q0 53 32 118.5t75 83.5q8 88 40.5 193.5t94.5 189.5q121 166 372 166q156 0 184.5 -72.5t28.5 -119.5q0 -111 -69 -111q-18 0 -59.5 20.5t-98.5 20.5q-100 0 -160.5 -74.5t-60.5 -169.5q0 -27 58 -28.5t134 -1.5l95 2q57 0 57 -72t-64.5 -117t-160.5 -49 q-125 0 -133 -49q-6 -39 -6.5 -90t8 -94t30.5 -88q49 -102 185 -103q59 0 94 25.5t67.5 25.5t51 -33.5t18.5 -72.5q0 -131 -110.5 -216t-251.5 -85q-389 0 -390 575l9 158q-70 0 -70 68zM417.5 1560.5q0.5 34.5 71 133t119.5 98.5q33 0 66 -41t33 -70.5t-33 -40.5 q-61 -18 -168 -84l-35 -22q-18 -8 -31 -8q-23 0 -22.5 34.5z" />
<glyph unicode="&#xca;" horiz-adv-x="829" d="M2 756q0 53 32 118.5t75 83.5q8 88 40.5 193.5t94.5 189.5q121 166 372 166q156 0 184.5 -72.5t28.5 -119.5q0 -111 -69 -111q-18 0 -59.5 20.5t-98.5 20.5q-100 0 -160.5 -74.5t-60.5 -169.5q0 -27 58 -28.5t134 -1.5l95 2q57 0 57 -72t-64.5 -117t-160.5 -49 q-125 0 -133 -49q-6 -39 -6.5 -90t8 -94t30.5 -88q49 -102 185 -103q59 0 94 25.5t67.5 25.5t51 -33.5t18.5 -72.5q0 -131 -110.5 -216t-251.5 -85q-389 0 -390 575l9 158q-70 0 -70 68zM260 1582q0 26 18.5 57.5t35 60.5t58.5 77t72 48h2q27 0 56 -33q4 -4 7 -4t11 10 q25 27 45 27h8q31 0 70 -43t64 -86l24 -43q27 -45 27 -71t-23 -26q-14 1 -30 11q-160 104 -199 104q-12 0 -110.5 -57.5t-112.5 -57.5q-23 0 -23 26z" />
<glyph unicode="&#xcb;" horiz-adv-x="829" d="M2 756q0 53 32 118.5t75 83.5q8 88 40.5 193.5t94.5 189.5q121 166 372 166q156 0 184.5 -72.5t28.5 -119.5q0 -111 -69 -111q-18 0 -59.5 20.5t-98.5 20.5q-100 0 -160.5 -74.5t-60.5 -169.5q0 -27 58 -28.5t134 -1.5l95 2q57 0 57 -72t-64.5 -117t-160.5 -49 q-125 0 -133 -49q-6 -39 -6.5 -90t8 -94t30.5 -88q49 -102 185 -103q59 0 94 25.5t67.5 25.5t51 -33.5t18.5 -72.5q0 -131 -110.5 -216t-251.5 -85q-389 0 -390 575l9 158q-70 0 -70 68zM195 1663q0 45 49 85t95 40t72.5 -22.5t26.5 -68.5t-48 -86t-94 -40t-73.5 23.5 t-27.5 68.5zM565 1663q0 45 49.5 85t95.5 40t72.5 -22.5t26.5 -68.5t-48 -86t-94 -40t-74 23.5t-28 68.5z" />
<glyph unicode="&#xcc;" horiz-adv-x="401" d="M2 1305q0 74 113.5 136t180 62t71.5 -67q2 -25 2 -102t-11 -210q-6 -223 -6 -555.5t23 -445.5q6 -12 6 -31q0 -74 -102.5 -122t-177 -48t-74.5 68l6 39q51 371 51 772l-10 317q-4 74 -49 131q-23 23 -23 56zM57 1710q0 35 34 75t65.5 40t72.5 -45q57 -63 88 -125 q29 -47 29 -71.5t-22 -24.5q-14 0 -31 8q-134 84 -197 104q-35 12 -39 39z" />
<glyph unicode="&#xcd;" horiz-adv-x="401" d="M2 1305q0 74 113.5 136t180 62t71.5 -67q2 -25 2 -102t-11 -210q-6 -223 -6 -555.5t23 -445.5q6 -12 6 -31q0 -74 -102.5 -122t-177 -48t-74.5 68l6 39q51 371 51 772l-10 317q-4 74 -49 131q-23 23 -23 56zM57 1560.5q0 34.5 71 133t120 98.5q33 0 65.5 -41t32.5 -70.5 t-33 -40.5q-61 -18 -168 -84l-34 -22q-18 -8 -31 -8q-23 0 -23 34.5z" />
<glyph unicode="&#xce;" horiz-adv-x="401" d="M-47.5 1539q0.5 26 19 57.5t35 60.5t58 77t72.5 48h2q27 0 56 -33q4 -4 7 -4t11 10q25 27 45 27h8q31 0 70 -43t63 -86l25 -43q27 -45 27 -71t-23 -26q-17 1 -31 11q-160 104 -198 104q-12 0 -110.5 -57.5t-113.5 -57.5q-23 0 -22.5 26zM2 1305q0 74 113.5 136t180 62 t71.5 -67q2 -25 2 -102t-11 -210q-6 -223 -6 -555.5t23 -445.5q6 -12 6 -31q0 -74 -102.5 -122t-177 -48t-74.5 68l6 39q51 371 51 772l-10 317q-4 74 -49 131q-23 23 -23 56z" />
<glyph unicode="&#xcf;" horiz-adv-x="401" d="M-80 1632q0 45 49 85t95.5 40t73 -22.5t26.5 -68.5t-48 -86t-94.5 -40t-74 23.5t-27.5 68.5zM2 1305q0 74 113.5 136t180 62t71.5 -67q2 -25 2 -102t-11 -210q-6 -223 -6 -555.5t23 -445.5q6 -12 6 -31q0 -74 -102.5 -122t-177 -48t-74.5 68l6 39q51 371 51 772l-10 317 q-4 74 -49 131q-23 23 -23 56zM291 1632q0 45 49 85t95 40t73 -22.5t27 -68.5t-48.5 -86t-94.5 -40t-73.5 23.5t-27.5 68.5z" />
<glyph unicode="&#xd0;" horiz-adv-x="907" d="M-88 759q0 81 51 87q43 -2 100 -2q0 266 -34 395l-11 43q-10 20 -10 49q0 74 78 121q80 57 248 57t278.5 -64.5t171.5 -172.5q121 -213 121 -496q0 -260 -78 -459q-41 -109 -106.5 -186.5t-168.5 -125.5t-235 -48q-98 0 -174.5 23.5t-109.5 57.5t-33 83l2 18 q47 285 57 541l-108 -2q-39 0 -39 81zM344 612q0 -141 10 -270q0 -45 45 -45q190 0 191 516q0 338 -94 434q-33 35 -62 35q-51 0 -57 -51q-25 -154 -29 -387q80 0 92 2q27 -2 41.5 -28.5t14.5 -61.5q0 -72 -41 -78q-45 4 -111 4v-70z" />
<glyph unicode="&#xd1;" horiz-adv-x="1019" d="M-20 -31q0 16 32.5 138t38.5 155q53 266 53 645v64l-4 121v12q0 59 -26 125l-8 20q-23 29 -23 68t45 79t111 62q137 47 233 47t115 -82q25 -82 54.5 -222t41.5 -187q33 -137 72 -213q6 -6 14 -6q20 0 25 47q0 184 -7.5 285.5t-7.5 155.5t6 73q23 68 93.5 112.5t135 44.5 t64.5 -51q0 -12 -28 -155q-70 -362 -70 -881q0 -172 12 -363v-8q0 -66 -69 -84q-53 -14 -113.5 -14t-139.5 27.5t-89 91.5q-57 344 -150 690l-31 117q-12 33 -28 32q-35 0 -35 -430q0 -147 6 -259.5t6 -133.5q0 -55 -38 -93t-93 -52q-92 -27 -145 -27t-53 49zM276 1624 q0 41 69 94.5t159 53.5q37 0 101.5 -14.5t111.5 -14.5t90 31q18 10 39 10q33 0 33 -35q-1 -92 -99 -176q-39 -33 -77.5 -33t-116.5 33t-135.5 33t-91 -11.5t-48.5 -11.5q-35 0 -35 41z" />
<glyph unicode="&#xd2;" horiz-adv-x="960" d="M20.5 625.5q-0.5 160.5 22.5 296t72 278.5t149.5 235.5t237.5 92.5q100 0 190 -64q248 -174 248 -766q0 -258 -104 -489q-51 -117 -147.5 -188.5t-212.5 -71.5t-196.5 50t-129 126t-78.5 174q-51 166 -51.5 326.5zM297 653q0 -125 36 -192.5t93 -67.5q88 0 152.5 153.5 t64.5 442.5t-119 289q-63 0 -117.5 -108.5t-82 -250t-27.5 -266.5zM336 1735q0 37 33.5 75.5t65.5 38.5t73 -45q57 -63 88 -125q29 -47 29 -71.5t-23 -24.5q-14 0 -31 8q-133 85 -196 105q-35 12 -39 39z" />
<glyph unicode="&#xd3;" horiz-adv-x="960" d="M20.5 625.5q-0.5 160.5 22.5 296t72 278.5t149.5 235.5t237.5 92.5q100 0 190 -64q248 -174 248 -766q0 -258 -104 -489q-51 -117 -147.5 -188.5t-212.5 -71.5t-196.5 50t-129 126t-78.5 174q-51 166 -51.5 326.5zM297 653q0 -125 36 -192.5t93 -67.5q88 0 152.5 153.5 t64.5 442.5t-119 289q-63 0 -117.5 -108.5t-82 -250t-27.5 -266.5zM370.5 1618q0.5 35 71 133t119.5 98q33 0 65.5 -41t32.5 -70.5t-32 -39.5q-61 -18 -168 -84l-35 -23q-18 -8 -31 -8q-23 0 -22.5 35z" />
<glyph unicode="&#xd4;" horiz-adv-x="960" d="M20.5 625.5q-0.5 160.5 22.5 296t72 278.5t149.5 235.5t237.5 92.5q100 0 190 -64q248 -174 248 -766q0 -258 -104 -489q-51 -117 -147.5 -188.5t-212.5 -71.5t-196.5 50t-129 126t-78.5 174q-51 166 -51.5 326.5zM231 1573.5q0 25.5 18.5 57.5t35 60.5t58.5 77t73 48.5 h2q27 0 55 -33q4 -4 7 -4t12 10q25 27 45 27h8q31 0 69.5 -43t63.5 -86l24 -43q27 -45 27 -71t-22 -26q-15 1 -31 11q-160 104 -199 104q-12 0 -111.5 -57.5t-111.5 -57.5q-23 0 -23 25.5zM297 653q0 -125 36 -192.5t93 -67.5q88 0 152.5 153.5t64.5 442.5t-119 289 q-63 0 -117.5 -108.5t-82 -250t-27.5 -266.5z" />
<glyph unicode="&#xd5;" horiz-adv-x="960" d="M20.5 625.5q-0.5 160.5 22.5 296t72 278.5t149.5 235.5t237.5 92.5q100 0 190 -64q248 -174 248 -766q0 -258 -104 -489q-51 -117 -147.5 -188.5t-212.5 -71.5t-196.5 50t-129 126t-78.5 174q-51 166 -51.5 326.5zM276 1624q0 41 69 94.5t159 53.5q37 0 101.5 -14.5 t111.5 -14.5t90 31q18 10 39 10q33 0 33 -35q-1 -92 -99 -176q-39 -33 -77.5 -33t-116.5 33t-135.5 33t-91 -11.5t-48.5 -11.5q-35 0 -35 41zM297 653q0 -125 36 -192.5t93 -67.5q88 0 152.5 153.5t64.5 442.5t-119 289q-63 0 -117.5 -108.5t-82 -250t-27.5 -266.5z" />
<glyph unicode="&#xd6;" horiz-adv-x="960" d="M20.5 625.5q-0.5 160.5 22.5 296t72 278.5t149.5 235.5t237.5 92.5q100 0 190 -64q248 -174 248 -766q0 -258 -104 -489q-51 -117 -147.5 -188.5t-212.5 -71.5t-196.5 50t-129 126t-78.5 174q-51 166 -51.5 326.5zM186 1669q0 45 49.5 85t95.5 40t72.5 -22.5t26.5 -68.5 t-48 -86t-94 -40t-74 23.5t-28 68.5zM297 653q0 -125 36 -192.5t93 -67.5q88 0 152.5 153.5t64.5 442.5t-119 289q-63 0 -117.5 -108.5t-82 -250t-27.5 -266.5zM557 1669q0 45 49 85t95.5 40t73 -22.5t26.5 -68.5t-48 -86t-94.5 -40t-74 23.5t-27.5 68.5z" />
<glyph unicode="&#xd7;" horiz-adv-x="776" d="M20 313q0 16 15 37q123 181 248 363q-147 211 -190.5 275.5t-43.5 89t37 37.5t72 13q70 0 94 -47q10 -20 137 -211q125 182 139 211q29 49 118 49t89 -43q0 -14 -14 -34l-227 -338l249 -365q12 -20 12.5 -40.5t-27.5 -34t-56 -13.5q-76 0 -115 49q-78 111 -170 246 l-166 -246q-39 -49 -120 -49t-81 51z" />
<glyph unicode="&#xd8;" horiz-adv-x="960" d="M-76 -10q0 18 15 37l143 243q-61 170 -62 389q0 266 95 541q49 143 149.5 235.5t238.5 92.5t249 -117l53 90q18 35 87 35t69 -37q0 -10 -7 -22l-114 -197q100 -213 100 -582q0 -258 -104 -489q-51 -117 -147.5 -188.5t-223.5 -71.5q-195 0 -309 168l-68 -115 q-23 -51 -93.5 -51t-70.5 39zM297 637l319 545q-31 96 -93 96t-116.5 -108.5t-82 -250t-27.5 -264.5v-18zM344 440q33 -47 82 -47q86 0 150.5 146.5t66.5 406.5z" />
<glyph unicode="&#xd9;" horiz-adv-x="927" d="M2 1317q0 80 119 141.5t198.5 61.5t79.5 -58q0 -4 -8 -78q-29 -250 -31 -356l-10 -266q0 -295 103 -295q53 0 82 49q35 61 42 115.5t11 89.5t6 89t2 89v90q0 182 -21 277q-8 18 -8 47q0 82 102.5 144.5t180.5 62.5t78 -66q0 -16 -14.5 -88t-27 -199t-14.5 -218t-3 -223 t-4 -245.5t-38.5 -220t-85 -163t-114.5 -89.5q-98 -51 -216 -51t-205 72.5t-119 174t-32 226.5l11 481v105l-3 112q0 82 -36 132q-25 25 -25 57zM309 1704q0 37 34 76t65.5 39t72.5 -45q57 -63 88 -125q29 -47 29 -72t-23 -25q-14 0 -30 9q-134 84 -197 104q-35 12 -39 39z " />
<glyph unicode="&#xda;" horiz-adv-x="927" d="M2 1317q0 80 119 141.5t198.5 61.5t79.5 -58q0 -4 -8 -78q-29 -250 -31 -356l-10 -266q0 -295 103 -295q53 0 82 49q35 61 42 115.5t11 89.5t6 89t2 89v90q0 182 -21 277q-8 18 -8 47q0 82 102.5 144.5t180.5 62.5t78 -66q0 -16 -14.5 -88t-27 -199t-14.5 -218t-3 -223 t-4 -245.5t-38.5 -220t-85 -163t-114.5 -89.5q-98 -51 -216 -51t-205 72.5t-119 174t-32 226.5l11 481v105l-3 112q0 82 -36 132q-25 25 -25 57zM372.5 1632q0.5 35 71 133.5t119.5 98.5q33 0 66 -41t33 -71t-33 -40q-61 -18 -168 -86l-35 -20q-18 -8 -31 -9q-23 0 -22.5 35 z" />
<glyph unicode="&#xdb;" horiz-adv-x="927" d="M2 1317q0 80 119 141.5t198.5 61.5t79.5 -58q0 -4 -8 -78q-29 -250 -31 -356l-10 -266q0 -295 103 -295q53 0 82 49q35 61 42 115.5t11 89.5t6 89t2 89v90q0 182 -21 277q-8 18 -8 47q0 82 102.5 144.5t180.5 62.5t78 -66q0 -16 -14.5 -88t-27 -199t-14.5 -218t-3 -223 t-4 -245.5t-38.5 -220t-85 -163t-114.5 -89.5q-98 -51 -216 -51t-205 72.5t-119 174t-32 226.5l11 481v105l-3 112q0 82 -36 132q-25 25 -25 57zM241.5 1600.5q0.5 25.5 19 57.5t34.5 60.5t58 76.5t73 48h2q27 0 55 -33q4 -4 7.5 -4t13.5 11q23 27 45 26h6q31 0 70 -43 t63 -86l25 -43q27 -45 26.5 -70.5t-22.5 -25.5q-17 0 -31 10q-160 104 -199 105q-12 0 -110 -57.5t-113 -57.5q-23 0 -22.5 25.5z" />
<glyph unicode="&#xdc;" horiz-adv-x="927" d="M2 1317q0 80 119 141.5t198.5 61.5t79.5 -58q0 -4 -8 -78q-29 -250 -31 -356l-10 -266q0 -295 103 -295q53 0 82 49q35 61 42 115.5t11 89.5t6 89t2 89v90q0 182 -21 277q-8 18 -8 47q0 82 102.5 144.5t180.5 62.5t78 -66q0 -16 -14.5 -88t-27 -199t-14.5 -218t-3 -223 t-4 -245.5t-38.5 -220t-85 -163t-114.5 -89.5q-98 -51 -216 -51t-205 72.5t-119 174t-32 226.5l11 481v105l-3 112q0 82 -36 132q-25 25 -25 57zM170 1679q0 45 49 85t95 40t73 -22.5t27 -68.5t-48.5 -86t-94.5 -40t-73.5 23.5t-27.5 68.5zM541 1679q0 45 49 85t95 40 t72.5 -22.5t26.5 -68.5t-48 -86t-94 -40t-73.5 23.5t-27.5 68.5z" />
<glyph unicode="&#xdd;" horiz-adv-x="591" d="M-170 1348q0 74 107.5 123t189.5 49t98 -68q6 -23 29 -121q51 -238 96 -344q6 -16 14.5 -16t20.5 14q39 59 84 179.5t45 183.5l-8 55q0 47 65.5 91t196.5 44q96 0 96 -55q0 -25 -18.5 -71t-185 -363.5t-187.5 -374.5q-35 -98 -41 -199l-2 -35q8 -293 13.5 -313.5 t5.5 -36.5q0 -49 -48 -88q-98 -76 -266 -76q-70 0 -69 66l6 41q2 10 14 65.5t17.5 82t11.5 83.5q16 123 16 228q0 156 -12 208q-66 213 -123 367l-21 51q-35 102 -106 158q-39 33 -39 72zM284.5 1642.5q0.5 34.5 71 133t119.5 98.5q33 0 65.5 -41t32.5 -70.5t-32 -40.5 q-61 -18 -168 -84l-35 -22q-18 -8 -31 -8q-23 0 -22.5 34.5z" />
<glyph unicode="&#xde;" horiz-adv-x="794" d="M-6 1305q0 74 113.5 136t180 62t70.5 -67q2 -25 2 -72t-2 -78q18 2 80 2t134.5 -16.5t144 -55t114.5 -115.5t43 -188.5t-45 -214t-105 -166t-142 -114.5q-126 -82 -226 -113q12 -117 19.5 -147.5t7.5 -46.5q0 -74 -101.5 -123t-178 -49t-76.5 73l4 33q49 365 49 756 q0 193 -10 280l-4 37q-4 74 -50 131q-23 23 -22 56zM346 1006q0 -297 4 -469q18 0 43 16q63 41 101 133q49 123 49 195.5t-9.5 108.5t-21.5 53.5t-29 27.5q-23 14 -43 14q-63 0 -94 -79z" />
<glyph unicode="&#xdf;" horiz-adv-x="968" d="M-12 16q0 18 10 49t31 160q59 371 59 703q0 150 -20 250q-8 20 -9 51q0 92 95 149q68 41 188.5 73t206.5 32t146.5 -10.5t119.5 -34t94 -71.5t35 -116q0 -129 -129 -239q-131 -106 -131 -170q0 -47 57 -99q127 -96 177 -231q23 -57 22.5 -143t-33.5 -170t-80 -121 q-94 -80 -170 -84l-32 -2q-125 0 -166 67q-33 55 -33 111.5t23.5 96.5t70.5 40q49 6 79 38t36 61l4 28q0 57 -30.5 112.5t-63.5 84.5l-31 26q-84 61 -84 132t92 163q113 135 113 224q0 55 -32 91t-80 36t-82.5 -21.5t-47.5 -44.5l-12 -20q-39 -66 -39 -279l6 -352l-8 -418 q0 -76 -47 -125q-78 -82 -238 -82q-68 0 -67 55z" />
<glyph unicode="&#xe0;" d="M12 274q0 80 24.5 150t61.5 113t86 76.5t92 49t89 25.5q63 12 88 12l20 27q-2 70 -101.5 70t-162.5 -39q-25 -16 -49 -17q-49 0 -49 74q0 190 303 191q233 0 293 -156q26 -70 26 -193l-6 -284q0 -170 43 -197q27 -20 27 -53q0 -59 -79 -110.5t-161 -51.5 q-41 0 -61.5 17.5t-20.5 37.5q0 55 -14 56q-2 0 -25.5 -23.5t-70 -47.5t-117 -24t-124.5 35t-75 90q-37 92 -37 172zM254 1268q0 35 34 74.5t65.5 39.5t72.5 -45q57 -63 88 -125q29 -47 29 -71.5t-23 -24.5q-14 0 -31 8q-133 85 -196 105q-35 12 -39 39zM293 332 q0 -86 61.5 -86t99.5 63.5t38 112.5q0 92 -66 92q-59 0 -96 -59.5t-37 -122.5z" />
<glyph unicode="&#xe1;" d="M12 274q0 80 24.5 150t61.5 113t86 76.5t92 49t89 25.5q63 12 88 12l20 27q-2 70 -101.5 70t-162.5 -39q-25 -16 -49 -17q-49 0 -49 74q0 190 303 191q233 0 293 -156q26 -70 26 -193l-6 -284q0 -170 43 -197q27 -20 27 -53q0 -59 -79 -110.5t-161 -51.5 q-41 0 -61.5 17.5t-20.5 37.5q0 55 -14 56q-2 0 -25.5 -23.5t-70 -47.5t-117 -24t-124.5 35t-75 90q-37 92 -37 172zM293 332q0 -86 61.5 -86t99.5 63.5t38 112.5q0 92 -66 92q-59 0 -96 -59.5t-37 -122.5zM296.5 1151q0.5 35 71 133t119.5 98q33 0 66 -41t33 -70.5 t-33 -39.5q-61 -18 -168 -84l-35 -23q-18 -8 -31 -8q-23 0 -22.5 35z" />
<glyph unicode="&#xe2;" d="M12 274q0 80 24.5 150t61.5 113t86 76.5t92 49t89 25.5q63 12 88 12l20 27q-2 70 -101.5 70t-162.5 -39q-25 -16 -49 -17q-49 0 -49 74q0 190 303 191q233 0 293 -156q26 -70 26 -193l-6 -284q0 -170 43 -197q27 -20 27 -53q0 -59 -79 -110.5t-161 -51.5 q-41 0 -61.5 17.5t-20.5 37.5q0 55 -14 56q-2 0 -25.5 -23.5t-70 -47.5t-117 -24t-124.5 35t-75 90q-37 92 -37 172zM176 1129.5q0 25.5 18.5 57.5t35 60.5t58.5 76.5t72 48h2q27 0 56 -33q4 -4 7 -4t13 11q23 27 45 26h6q31 0 70 -43t64 -86l24 -43q27 -45 27 -70.5 t-23 -25.5q-16 0 -30 10q-160 104 -199 105q-12 0 -110.5 -57.5t-112.5 -57.5q-23 0 -23 25.5zM293 332q0 -86 61.5 -86t99.5 63.5t38 112.5q0 92 -66 92q-59 0 -96 -59.5t-37 -122.5z" />
<glyph unicode="&#xe3;" d="M12 274q0 80 24.5 150t61.5 113t86 76.5t92 49t89 25.5q63 12 88 12l20 27q-2 70 -101.5 70t-162.5 -39q-25 -16 -49 -17q-49 0 -49 74q0 190 303 191q233 0 293 -156q26 -70 26 -193l-6 -284q0 -170 43 -197q27 -20 27 -53q0 -59 -79 -110.5t-161 -51.5 q-41 0 -61.5 17.5t-20.5 37.5q0 55 -14 56q-2 0 -25.5 -23.5t-70 -47.5t-117 -24t-124.5 35t-75 90q-37 92 -37 172zM200.5 1150q0.5 40 48.5 90t104.5 50t105.5 -12t90 -12t76 32q14 7 28 7q35 0 35 -49.5t-48 -114t-101 -64.5q-31 0 -89.5 28t-104.5 28t-73.5 -11.5 t-38.5 -11.5q-33 0 -32.5 40zM293 332q0 -86 61.5 -86t99.5 63.5t38 112.5q0 92 -66 92q-59 0 -96 -59.5t-37 -122.5z" />
<glyph unicode="&#xe4;" d="M12 274q0 80 24.5 150t61.5 113t86 76.5t92 49t89 25.5q63 12 88 12l20 27q-2 70 -101.5 70t-162.5 -39q-25 -16 -49 -17q-49 0 -49 74q0 190 303 191q233 0 293 -156q26 -70 26 -193l-6 -284q0 -170 43 -197q27 -20 27 -53q0 -59 -79 -110.5t-161 -51.5 q-41 0 -61.5 17.5t-20.5 37.5q0 55 -14 56q-2 0 -25.5 -23.5t-70 -47.5t-117 -24t-124.5 35t-75 90q-37 92 -37 172zM92 1202q0 45 49 85t95.5 40t73 -22.5t26.5 -68.5t-48 -86t-94.5 -40t-74 23.5t-27.5 68.5zM293 332q0 -86 61.5 -86t99.5 63.5t38 112.5q0 92 -66 92 q-59 0 -96 -59.5t-37 -122.5zM463 1202q0 45 49 85t95 40t73 -22.5t27 -68.5t-48.5 -86t-94.5 -40t-73.5 23.5t-27.5 68.5z" />
<glyph unicode="&#xe5;" d="M12 274q0 80 24.5 150t61.5 113t86 76.5t92 49t89 25.5q63 12 88 12l20 27q-2 70 -101.5 70t-162.5 -39q-25 -16 -49 -17q-49 0 -49 74q0 190 303 191q233 0 293 -156q26 -70 26 -193l-6 -284q0 -170 43 -197q27 -20 27 -53q0 -59 -79 -110.5t-161 -51.5 q-41 0 -61.5 17.5t-20.5 37.5q0 55 -14 56q-2 0 -25.5 -23.5t-70 -47.5t-117 -24t-124.5 35t-75 90q-37 92 -37 172zM275 1209.5q-1 56.5 58.5 112.5t124 56t99.5 -28.5t35 -85t-60.5 -110.5t-124 -54t-97.5 26.5t-35 83zM293 332q0 -86 61.5 -86t99.5 63.5t38 112.5 q0 92 -66 92q-59 0 -96 -59.5t-37 -122.5zM362 1227q0 -49 54 -49q35 0 61.5 23.5t26.5 47.5q0 51 -53 51q-35 0 -62 -24.5t-27 -48.5z" />
<glyph unicode="&#xe6;" horiz-adv-x="1206" d="M12 289q0 168 88 264q100 106 265 141q39 8 63 11h25q18 4 18 22v6q-2 70 -101.5 70t-143.5 -26.5t-68 -26.5q-49 0 -49 82.5t74.5 131t218 48.5t239.5 -68q8 -8 18.5 -8t18.5 8q90 72 218 72t208 -68.5t80 -204.5q0 -61 -29 -125.5t-68.5 -105.5t-119.5 -71.5 t-187 -30.5q-16 0 -16 -16.5t5 -39t36 -55.5t92.5 -33.5t112.5 58.5q43 55 86 55t65.5 -36t22.5 -79q0 -137 -102.5 -219t-250.5 -82q-49 0 -96 15.5t-52 15.5t-38 -13.5t-75 -13.5t-57 5t-21 16q-10 14 -15.5 51t-17.5 37q-8 0 -27.5 -23.5t-63.5 -44t-73 -22.5l-29 -2 q-131 0 -192.5 84t-61.5 221zM290.5 327.5q-0.5 -73.5 65.5 -75.5q57 0 96.5 62.5t39.5 109.5q0 96 -61.5 96t-100.5 -59.5t-39.5 -133zM754 612q0 -20 26 -20q63 0 116.5 51t53.5 119q0 27 -16 46t-43 19q-66 0 -101.5 -70.5t-35.5 -144.5z" />
<glyph unicode="&#xe7;" horiz-adv-x="739" d="M20 449q0 305 197 471q102 88 246 88q84 0 145 -31q115 -59 123 -205q0 -68 -32.5 -115t-104.5 -47q-35 0 -58.5 26t-23.5 51.5t-4 43t-24.5 46t-53.5 28.5q-72 0 -100.5 -77t-28.5 -173q0 -301 129 -301q63 0 86 63q6 27 35 50.5t61 23.5q125 0 125 -141t-83 -209 t-197 -84q-47 -16 -47 -41q0 -16 41 -38.5t41 -61.5t-47.5 -63.5t-91.5 -24.5t-44 12q0 18 30 39.5t30 40t-36 33t-36 34t27.5 41t27.5 24.5t-4 3q-328 39 -328 494z" />
<glyph unicode="&#xe8;" horiz-adv-x="751" d="M22.5 414.5q0.5 169.5 41 294.5t140 212t235.5 87t213 -70t77 -211t-111.5 -233.5t-281.5 -92.5q-25 0 -25 -24q0 -49 36 -85t98.5 -36t112.5 57.5t88 57.5t60.5 -33t22.5 -93.5t-29.5 -121t-70.5 -91t-92 -48.5q-76 -29 -161 -29t-159 41t-115 110q-80 139 -79.5 308.5z M231 1268q0 35 34 74.5t65.5 39.5t72.5 -45q57 -63 89 -125q29 -47 28.5 -71.5t-22.5 -24.5q-14 0 -31 8q-134 85 -197 105q-35 12 -39 39zM299 614q0 -12 8 -20q8 -10 21 -10q117 10 155 110q10 23 15 54q-2 72 -58 71q-63 0 -97 -61.5t-44 -143.5z" />
<glyph unicode="&#xe9;" horiz-adv-x="751" d="M22.5 414.5q0.5 169.5 41 294.5t140 212t235.5 87t213 -70t77 -211t-111.5 -233.5t-281.5 -92.5q-25 0 -25 -24q0 -49 36 -85t98.5 -36t112.5 57.5t88 57.5t60.5 -33t22.5 -93.5t-29.5 -121t-70.5 -91t-92 -48.5q-76 -29 -161 -29t-159 41t-115 110q-80 139 -79.5 308.5z M299 614q0 -12 8 -20q8 -10 21 -10q117 10 155 110q10 23 15 54q-2 72 -58 71q-63 0 -97 -61.5t-44 -143.5zM333.5 1151q0.5 35 71 133t119.5 98q33 0 66 -41t33 -70.5t-33 -39.5q-61 -18 -168 -84l-35 -23q-18 -8 -31 -8q-23 0 -22.5 35z" />
<glyph unicode="&#xea;" horiz-adv-x="751" d="M22.5 414.5q0.5 169.5 41 294.5t140 212t235.5 87t213 -70t77 -211t-111.5 -233.5t-281.5 -92.5q-25 0 -25 -24q0 -49 36 -85t98.5 -36t112.5 57.5t88 57.5t60.5 -33t22.5 -93.5t-29.5 -121t-70.5 -91t-92 -48.5q-76 -29 -161 -29t-159 41t-115 110q-80 139 -79.5 308.5z M149.5 1129.5q0.5 25.5 18.5 57.5t34.5 60.5t58.5 76.5t73 48h2q27 0 55 -33q4 -4 7 -4t12 11q25 27 45 26h8q31 0 69.5 -43t63.5 -86l25 -43q27 -45 26.5 -70.5t-22.5 -25.5q-15 0 -31 10q-160 104 -199 105q-12 0 -111.5 -57.5t-111.5 -57.5q-23 0 -22.5 25.5zM299 614 q0 -12 8 -20q8 -10 21 -10q117 10 155 110q10 23 15 54q-2 72 -58 71q-63 0 -97 -61.5t-44 -143.5z" />
<glyph unicode="&#xeb;" horiz-adv-x="751" d="M22.5 414.5q0.5 169.5 41 294.5t140 212t235.5 87t213 -70t77 -211t-111.5 -233.5t-281.5 -92.5q-25 0 -25 -24q0 -49 36 -85t98.5 -36t112.5 57.5t88 57.5t60.5 -33t22.5 -93.5t-29.5 -121t-70.5 -91t-92 -48.5q-76 -29 -161 -29t-159 41t-115 110q-80 139 -79.5 308.5z M98 1202q0 45 49.5 85t95.5 40t72.5 -22.5t26.5 -68.5t-48 -86t-94 -40t-74 23.5t-28 68.5zM299 614q0 -12 8 -20q8 -10 21 -10q117 10 155 110q10 23 15 54q-2 72 -58 71q-63 0 -97 -61.5t-44 -143.5zM469 1202q0 45 49 85t95 40t73 -22.5t27 -68.5t-48.5 -86t-94.5 -40 t-73.5 23.5t-27.5 68.5z" />
<glyph unicode="&#xec;" horiz-adv-x="442" d="M12 831q0 70 106.5 124.5t179.5 54.5t75 -74q0 -51 -9.5 -183t-9.5 -245q0 -272 49 -342q29 -16 29 -51q0 -68 -74.5 -107t-169.5 -39q-125 0 -125 84q0 4 7 47q29 164 28 367l-6 203q0 33 -15.5 61.5t-40 51t-24.5 48.5zM55 1268q0 35 34 74.5t65.5 39.5t72.5 -45 q57 -63 88 -125q29 -47 29 -71.5t-22 -24.5q-14 0 -31 8q-134 85 -197 105q-35 12 -39 39z" />
<glyph unicode="&#xed;" horiz-adv-x="442" d="M12 831q0 70 106.5 124.5t179.5 54.5t75 -74q0 -51 -9.5 -183t-9.5 -245q0 -272 49 -342q29 -16 29 -51q0 -68 -74.5 -107t-169.5 -39q-125 0 -125 84q0 4 7 47q29 164 28 367l-6 203q0 33 -15.5 61.5t-40 51t-24.5 48.5zM100 1151q0 35 71 133t120 98q33 0 65.5 -41 t32.5 -70.5t-33 -39.5q-61 -18 -168 -84l-34 -23q-18 -8 -31 -8q-23 0 -23 35z" />
<glyph unicode="&#xee;" horiz-adv-x="442" d="M-27 1129.5q0 25.5 18.5 57.5t35 60.5t58.5 76.5t73 48h2q27 0 55 -33q4 -4 7 -4t11 11q25 27 46 26h8q31 0 69.5 -43t63.5 -86l24 -43q27 -45 27 -70.5t-22 -25.5q-15 0 -31 10q-160 104 -199 105q-12 0 -111.5 -57.5t-111.5 -57.5q-23 0 -23 25.5zM12 831 q0 70 106.5 124.5t179.5 54.5t75 -74q0 -51 -9.5 -183t-9.5 -245q0 -272 49 -342q29 -16 29 -51q0 -68 -74.5 -107t-169.5 -39q-125 0 -125 84q0 4 7 47q29 164 28 367l-6 203q0 33 -15.5 61.5t-40 51t-24.5 48.5z" />
<glyph unicode="&#xef;" horiz-adv-x="442" d="M-86 1202q0 45 49 85t95 40t73 -22.5t27 -68.5t-48.5 -86t-94.5 -40t-73.5 23.5t-27.5 68.5zM12 831q0 70 106.5 124.5t179.5 54.5t75 -74q0 -51 -9.5 -183t-9.5 -245q0 -272 49 -342q29 -16 29 -51q0 -68 -74.5 -107t-169.5 -39q-125 0 -125 84q0 4 7 47q29 164 28 367 l-6 203q0 33 -15.5 61.5t-40 51t-24.5 48.5zM285 1202q0 45 49 85t95 40t72.5 -22.5t26.5 -68.5t-48 -86t-94 -40t-73.5 23.5t-27.5 68.5z" />
<glyph unicode="&#xf0;" horiz-adv-x="798" d="M20 408.5q0 103.5 18.5 188.5t56.5 167t109.5 140.5t168.5 72.5q80 0 110 -33q10 -10 18.5 -10t10.5 16q0 96 -41 213l-113 -88q-20 -12 -42.5 -12t-39 14.5t-16.5 30.5q0 23 19 45l143 113q-68 113 -178 182q-10 12 -11 27q0 35 50 34q145 0 274 -139l119 92 q18 14 42.5 14.5t42 -14t17.5 -28.5q0 -27 -22 -50l-133 -104q141 -229 141 -639q0 -219 -76 -412q-31 -78 -73 -134t-110.5 -95t-153.5 -39t-148.5 36t-97 86t-54.5 118q-31 104 -31 207.5zM266 556q0 -91 40 -160.5t93.5 -69.5t89 59t35.5 126t-12 117t-46 94t-83 44 t-83 -59.5t-34 -150.5z" />
<glyph unicode="&#xf1;" horiz-adv-x="901" d="M2 831q0 68 106.5 129.5t169 61.5t70.5 -68q4 -90 23 -90q6 0 14 6q8 14 25.5 35t76 54.5t134 33.5t125 -61.5t59.5 -145.5q4 -35 4 -114l-8 -303q0 -139 63 -191q37 -18 37 -46t-16 -50q-78 -111 -254 -111q-84 2 -99 68q-6 29 -6 89t11.5 190.5t11.5 191.5 q0 182 -82 182q-53 0 -83 -57.5t-30 -112.5l-4 -153q0 -61 6 -166l6 -105q0 -68 -47 -100q-76 -53 -194 -53q-84 0 -84 71l4 33q51 240 52 406t-10 221t-46 93t-35 62zM207 1150q0 40 48 90t104.5 50t105.5 -12t90 -12t76 32q14 7 28 7q35 0 35 -49.5t-48 -114t-101 -64.5 q-31 0 -89.5 28t-104.5 28t-73.5 -11.5t-37.5 -11.5q-33 0 -33 40z" />
<glyph unicode="&#xf2;" horiz-adv-x="804" d="M23 446q0 201 92 377q45 88 125 143.5t180 55.5q178 0 271 -155.5t93 -381.5q0 -297 -170 -450q-94 -84 -208.5 -84t-189.5 47t-114 125q-80 152 -79 323zM258 1268q0 35 34 74.5t65.5 39.5t72.5 -45q57 -63 88 -125q29 -47 29 -71.5t-23 -24.5q-14 0 -30 8 q-134 85 -197 105q-35 12 -39 39zM272 475q0 -158 105 -158q57 0 109.5 72t52.5 197q0 61 -25 110t-81 49t-108.5 -78.5t-52.5 -191.5z" />
<glyph unicode="&#xf3;" horiz-adv-x="804" d="M23 446q0 201 92 377q45 88 125 143.5t180 55.5q178 0 271 -155.5t93 -381.5q0 -297 -170 -450q-94 -84 -208.5 -84t-189.5 47t-114 125q-80 152 -79 323zM272 475q0 -158 105 -158q57 0 109.5 72t52.5 197q0 61 -25 110t-81 49t-108.5 -78.5t-52.5 -191.5zM309 1151 q0 35 71 133t120 98q32 0 65 -41t33 -70.5t-33 -39.5q-61 -18 -168 -84l-35 -23q-18 -8 -30 -8q-23 0 -23 35z" />
<glyph unicode="&#xf4;" horiz-adv-x="804" d="M23 446q0 201 92 377q45 88 125 143.5t180 55.5q178 0 271 -155.5t93 -381.5q0 -297 -170 -450q-94 -84 -208.5 -84t-189.5 47t-114 125q-80 152 -79 323zM167.5 1129.5q0.5 25.5 19 57.5t35 60.5t58.5 76.5t72 48h2q27 0 56 -33q4 -4 7 -4t13 11q23 27 45 26h6 q31 0 70 -43t63 -86l25 -43q27 -45 27 -70.5t-23 -25.5q-17 0 -31 10q-160 104 -198 105q-12 0 -111.5 -57.5t-112.5 -57.5q-23 0 -22.5 25.5zM272 475q0 -158 105 -158q57 0 109.5 72t52.5 197q0 61 -25 110t-81 49t-108.5 -78.5t-52.5 -191.5z" />
<glyph unicode="&#xf5;" horiz-adv-x="804" d="M23 446q0 201 92 377q45 88 125 143.5t180 55.5q178 0 271 -155.5t93 -381.5q0 -297 -170 -450q-94 -84 -208.5 -84t-189.5 47t-114 125q-80 152 -79 323zM160 1150q0 40 48 90t104.5 50t105.5 -12t90 -12t76 32q14 7 28 7q35 0 35 -49.5t-48 -114t-101 -64.5 q-31 0 -89.5 28t-104.5 28t-73.5 -11.5t-37.5 -11.5q-33 0 -33 40zM272 475q0 -158 105 -158q57 0 109.5 72t52.5 197q0 61 -25 110t-81 49t-108.5 -78.5t-52.5 -191.5z" />
<glyph unicode="&#xf6;" horiz-adv-x="804" d="M23 446q0 201 92 377q45 88 125 143.5t180 55.5q178 0 271 -155.5t93 -381.5q0 -297 -170 -450q-94 -84 -208.5 -84t-189.5 47t-114 125q-80 152 -79 323zM96 1202q0 45 49.5 85t95.5 40t72.5 -22.5t26.5 -68.5t-48 -86t-94 -40t-74 23.5t-28 68.5zM272 475 q0 -158 105 -158q57 0 109.5 72t52.5 197q0 61 -25 110t-81 49t-108.5 -78.5t-52.5 -191.5zM467 1202q0 45 49 85t95 40t73 -22.5t27 -68.5t-48.5 -86t-94.5 -40t-73.5 23.5t-27.5 68.5z" />
<glyph unicode="&#xf7;" horiz-adv-x="962" d="M20 727q0 51 46 72q18 8 40 8q301 -2 523 -2l237 2q68 0 76 -80q0 -86 -57 -88q-45 4 -264 4l-535 -4q-66 0 -66 88zM336 373q0 63 59.5 103t122.5 40q109 0 109 -94q0 -51 -58.5 -89t-113 -38t-87 21.5t-32.5 56.5zM336 1012q0 63 59.5 103t122.5 40q109 0 109 -94 q0 -51 -58.5 -89t-113 -38t-87 21.5t-32.5 56.5z" />
<glyph unicode="&#xf8;" horiz-adv-x="804" d="M23 446q0 201 92 377q45 88 124.5 143.5t186 55.5t186.5 -68l47 80q12 25 61.5 25t49.5 -27q0 -4 -4 -16l-82 -139q100 -150 100 -392q0 -297 -170 -450q-94 -84 -219 -84t-213 72l-35 -60q-16 -37 -66 -37t-50 27l10 27l72 122q-90 137 -90 344zM272 475q0 -45 11 -82 l198 340q-18 12 -43 12q-61 0 -113.5 -78.5t-52.5 -191.5zM356 319q7 -2 21 -2q57 0 109.5 72t52.5 197q0 25 -2 39z" />
<glyph unicode="&#xf9;" horiz-adv-x="899" d="M0 850q0 63 102.5 117.5t157.5 54.5t74.5 -22.5t19.5 -82t-10 -187.5t-10 -155q0 -223 96 -223q70 0 94 146q10 53 11 118q0 131 -23 195q-23 29 -23 55q0 61 92.5 103.5t163 42.5t70.5 -71t-13.5 -220.5t-13.5 -236.5t2.5 -122.5t21.5 -106.5t52 -91q35 -16 35 -44 t-16 -50q-76 -104 -240 -105q-92 6 -104 70l-15 69q-2 14 -12 15l-16 -8q-74 -139 -226 -140q-213 5 -213 320l6 332q0 59 -10 103t-31.5 69.5t-21.5 54.5zM266 1268q0 35 34 74.5t65.5 39.5t72.5 -45q57 -63 88 -125q29 -47 29 -71.5t-23 -24.5q-14 0 -30 8 q-134 85 -197 105q-35 12 -39 39z" />
<glyph unicode="&#xfa;" horiz-adv-x="899" d="M0 850q0 63 102.5 117.5t157.5 54.5t74.5 -22.5t19.5 -82t-10 -187.5t-10 -155q0 -223 96 -223q70 0 94 146q10 53 11 118q0 131 -23 195q-23 29 -23 55q0 61 92.5 103.5t163 42.5t70.5 -71t-13.5 -220.5t-13.5 -236.5t2.5 -122.5t21.5 -106.5t52 -91q35 -16 35 -44 t-16 -50q-76 -104 -240 -105q-92 6 -104 70l-15 69q-2 14 -12 15l-16 -8q-74 -139 -226 -140q-213 5 -213 320l6 332q0 59 -10 103t-31.5 69.5t-21.5 54.5zM362 1151q0 35 71 133t120 98q33 0 65.5 -41t32.5 -70.5t-33 -39.5q-61 -18 -167 -84l-35 -23q-18 -8 -31 -8 q-23 0 -23 35z" />
<glyph unicode="&#xfb;" horiz-adv-x="899" d="M0 850q0 63 102.5 117.5t157.5 54.5t74.5 -22.5t19.5 -82t-10 -187.5t-10 -155q0 -223 96 -223q70 0 94 146q10 53 11 118q0 131 -23 195q-23 29 -23 55q0 61 92.5 103.5t163 42.5t70.5 -71t-13.5 -220.5t-13.5 -236.5t2.5 -122.5t21.5 -106.5t52 -91q35 -16 35 -44 t-16 -50q-76 -104 -240 -105q-92 6 -104 70l-15 69q-2 14 -12 15l-16 -8q-74 -139 -226 -140q-213 5 -213 320l6 332q0 59 -10 103t-31.5 69.5t-21.5 54.5zM200.5 1129.5q0.5 25.5 19 57.5t34.5 60.5t58 76.5t73 48h2q27 0 55 -33q4 -4 7.5 -4t13.5 11q23 27 45 26h6 q31 0 70 -43t63 -86l25 -43q27 -45 26.5 -70.5t-22.5 -25.5q-17 0 -31 10q-160 104 -199 105q-12 0 -110 -57.5t-113 -57.5q-23 0 -22.5 25.5z" />
<glyph unicode="&#xfc;" horiz-adv-x="899" d="M0 850q0 63 102.5 117.5t157.5 54.5t74.5 -22.5t19.5 -82t-10 -187.5t-10 -155q0 -223 96 -223q70 0 94 146q10 53 11 118q0 131 -23 195q-23 29 -23 55q0 61 92.5 103.5t163 42.5t70.5 -71t-13.5 -220.5t-13.5 -236.5t2.5 -122.5t21.5 -106.5t52 -91q35 -16 35 -44 t-16 -50q-76 -104 -240 -105q-92 6 -104 70l-15 69q-2 14 -12 15l-16 -8q-74 -139 -226 -140q-213 5 -213 320l6 332q0 59 -10 103t-31.5 69.5t-21.5 54.5zM141 1202q0 45 49.5 85t95.5 40t72.5 -22.5t26.5 -68.5t-48 -86t-94 -40t-74 23.5t-28 68.5zM512 1202q0 45 49 85 t95 40t73 -22.5t27 -68.5t-48.5 -86t-94.5 -40t-73.5 23.5t-27.5 68.5z" />
<glyph unicode="&#xfd;" horiz-adv-x="849" d="M0 852q0 59 109.5 114.5t166.5 55.5q78 0 78 -100q0 -74 -10 -175.5t-10 -187.5q0 -184 84 -184h8q102 0 102 295q0 84 -24 141q-23 29 -23 55q0 59 96.5 102.5t168 43.5t71.5 -70q0 -74 -10 -147q-18 -160 -19 -377l7 -256q0 -223 -30 -352t-131.5 -226.5t-244.5 -97.5 q-84 0 -147.5 47t-63.5 133q0 49 27.5 78t56.5 33l27 4q119 2 172 94t53 240q0 35 -10 35l-19 -9q-76 -139 -217 -139q-211 0 -211 291l6 340q0 96 -31.5 147t-31.5 72zM337.5 1151q0.5 35 71 133t119.5 98q33 0 66 -41t33 -70.5t-33 -39.5q-61 -18 -168 -84l-35 -23 q-18 -8 -31 -8q-23 0 -22.5 35z" />
<glyph unicode="&#xfe;" horiz-adv-x="856" d="M-61 -543l6 37q109 311 125 977q10 373 10 512t-6 184q-8 74 -51 105l-15 10q-27 18 -26 49q0 68 115.5 129.5t181.5 61.5q73 0 73 -74q0 -121 -9 -251t-13 -279v-13q6 -12 14 -12t15.5 11t20.5 26.5t57 40t109.5 24.5t127 -44t94.5 -120q61 -141 61 -344 q0 -63 -23.5 -165.5t-56 -171t-100 -122t-157.5 -53.5q-49 0 -88 16.5t-56 33.5l-14 14q-6 6 -10 6q-12 0 -17 -18q-6 -102 -6 -201.5t5 -158t5 -73.5q0 -68 -47 -104q-109 -92 -264 -92q-61 0 -61 59zM328 547q0 -88 35.5 -154.5t85 -66.5t82 54t32.5 143t-37 155.5 t-86 66.5t-80.5 -55t-31.5 -143z" />
<glyph unicode="&#xff;" horiz-adv-x="849" d="M0 852q0 59 109.5 114.5t166.5 55.5q78 0 78 -100q0 -74 -10 -175.5t-10 -187.5q0 -184 84 -184h8q102 0 102 295q0 84 -24 141q-23 29 -23 55q0 59 96.5 102.5t168 43.5t71.5 -70q0 -74 -10 -147q-18 -160 -19 -377l7 -256q0 -223 -30 -352t-131.5 -226.5t-244.5 -97.5 q-84 0 -147.5 47t-63.5 133q0 49 27.5 78t56.5 33l27 4q119 2 172 94t53 240q0 35 -10 35l-19 -9q-76 -139 -217 -139q-211 0 -211 291l6 340q0 96 -31.5 147t-31.5 72zM131 1202q0 45 49 85t95.5 40t73 -22.5t26.5 -68.5t-48 -86t-94.5 -40t-74 23.5t-27.5 68.5zM502 1202 q0 45 49 85t95 40t72.5 -22.5t26.5 -68.5t-48 -86t-94 -40t-73.5 23.5t-27.5 68.5z" />
<glyph unicode="&#x152;" horiz-adv-x="1409" d="M20.5 625.5q-0.5 160.5 22.5 296t72 278.5t149.5 235.5t237.5 92.5q86 0 166 -48t135 -137q129 164 373 164q156 0 184.5 -72.5t28.5 -119.5q0 -111 -70 -111q-18 0 -59 20.5t-99 20.5q-100 0 -160.5 -74.5t-60.5 -169.5q0 -27 58.5 -28.5t134.5 -1.5l94 2q57 0 57 -72 t-64.5 -117t-155.5 -47t-124 -28v-11q0 -74 -14 -188q35 -199 217 -199q59 0 94 25.5t67.5 25.5t51 -33.5t18.5 -72.5q0 -131 -110.5 -216t-268 -85t-254.5 113q-115 -119 -276 -119q-104 0 -185 50t-129.5 126t-78.5 174q-51 166 -51.5 326.5zM297 653q0 -125 36 -192.5 t93 -67.5q88 0 152.5 153.5t64.5 442.5t-119 289q-63 0 -117.5 -108.5t-82 -250t-27.5 -266.5z" />
<glyph unicode="&#x153;" horiz-adv-x="1263" d="M23 446q0 201 92 377q45 88 125 143.5t180 55.5q162 0 258 -137q109 123 280 123q129 0 206 -70t77 -211t-111.5 -233.5t-281.5 -92.5q-25 0 -25 -24q0 -49 36 -85t98.5 -36t112.5 57.5t88 57.5t60.5 -33t22.5 -93.5t-29.5 -121t-70.5 -91t-92 -48.5q-76 -29 -146 -29 q-160 0 -258 108q-102 -113 -256 -112q-98 0 -173 47t-114 125q-80 152 -79 323zM272 475q0 -158 105 -158q57 0 109.5 72t52.5 197q0 61 -25 110t-81 49t-108.5 -78.5t-52.5 -191.5zM811 614q0 -12 8 -20q8 -10 21 -10q117 10 155 110q10 23 15 54q-2 72 -58 71 q-63 0 -97 -61.5t-44 -143.5z" />
<glyph unicode="&#x178;" horiz-adv-x="591" d="M-170 1348q0 74 107.5 123t189.5 49t98 -68q6 -23 29 -121q51 -238 96 -344q6 -16 14.5 -16t20.5 14q39 59 84 179.5t45 183.5l-8 55q0 47 65.5 91t196.5 44q96 0 96 -55q0 -25 -18.5 -71t-185 -363.5t-187.5 -374.5q-35 -98 -41 -199l-2 -35q8 -293 13.5 -313.5 t5.5 -36.5q0 -49 -48 -88q-98 -76 -266 -76q-70 0 -69 66l6 41q2 10 14 65.5t17.5 82t11.5 83.5q16 123 16 228q0 156 -12 208q-66 213 -123 367l-21 51q-35 102 -106 158q-39 33 -39 72zM29 1690q0 45 49 85t95 40t72.5 -23t26.5 -69t-48 -86t-94 -40t-73.5 24t-27.5 69z M399 1690q0 45 49.5 85t95.5 40t72.5 -23t26.5 -69t-48 -86t-94 -40t-74 24t-28 69z" />
<glyph unicode="&#x2c6;" d="M182 1129.5q0 25.5 18.5 57.5t35 60.5t58.5 76.5t73 48h2q27 0 55 -33q4 -4 7 -4t11 11q25 27 45 26h9q31 0 69.5 -43t63.5 -86l24 -43q27 -45 27 -70.5t-23 -25.5q-14 0 -30 10q-160 104 -199 105q-12 0 -111.5 -57.5t-111.5 -57.5q-23 0 -23 25.5z" />
<glyph unicode="&#x2dc;" horiz-adv-x="901" d="M219 1150q0 40 48 90t104.5 50t105.5 -12t90 -12t76 32q15 7 29 7q35 0 35 -49.5t-48.5 -114t-101.5 -64.5q-31 0 -89 28t-104.5 28t-74 -11.5t-37.5 -11.5q-33 0 -33 40z" />
<glyph unicode="&#x2000;" horiz-adv-x="937" />
<glyph unicode="&#x2001;" horiz-adv-x="1874" />
<glyph unicode="&#x2002;" horiz-adv-x="937" />
<glyph unicode="&#x2003;" horiz-adv-x="1874" />
<glyph unicode="&#x2004;" horiz-adv-x="624" />
<glyph unicode="&#x2005;" horiz-adv-x="468" />
<glyph unicode="&#x2006;" horiz-adv-x="312" />
<glyph unicode="&#x2007;" horiz-adv-x="312" />
<glyph unicode="&#x2008;" horiz-adv-x="234" />
<glyph unicode="&#x2009;" horiz-adv-x="374" />
<glyph unicode="&#x200a;" horiz-adv-x="104" />
<glyph unicode="&#x2010;" horiz-adv-x="970" d="M57 504q0 33 18.5 61.5t55.5 30.5q326 -2 494 -2t188 2q37 -2 57.5 -28.5t20.5 -59.5t-15 -55.5t-42 -24.5q-39 4 -213 4l-508 -4q-27 0 -41.5 21.5t-14.5 54.5z" />
<glyph unicode="&#x2011;" horiz-adv-x="970" d="M57 504q0 33 18.5 61.5t55.5 30.5q326 -2 494 -2t188 2q37 -2 57.5 -28.5t20.5 -59.5t-15 -55.5t-42 -24.5q-39 4 -213 4l-508 -4q-27 0 -41.5 21.5t-14.5 54.5z" />
<glyph unicode="&#x2012;" horiz-adv-x="970" d="M57 504q0 33 18.5 61.5t55.5 30.5q326 -2 494 -2t188 2q37 -2 57.5 -28.5t20.5 -59.5t-15 -55.5t-42 -24.5q-39 4 -213 4l-508 -4q-27 0 -41.5 21.5t-14.5 54.5z" />
<glyph unicode="&#x2013;" horiz-adv-x="739" d="M57 509q0 81 37 87q338 -2 422 -2t94 2q39 -2 39.5 -82t-28.5 -86q-20 4 -107 4l-428 -4q-29 0 -29 81z" />
<glyph unicode="&#x2014;" horiz-adv-x="1329" d="M57 504q0 33 18.5 61.5t55.5 30.5q674 -2 842 -2t188 2q37 -2 57.5 -28.5t20.5 -59.5t-15 -55.5t-42 -24.5q-39 4 -213 4l-856 -4q-27 0 -41.5 21.5t-14.5 54.5z" />
<glyph unicode="&#x2018;" horiz-adv-x="249" d="M0 1425.5q0 59.5 33 94t80 34.5q96 0 96 -86q0 -14 -24.5 -124.5t-26.5 -152.5t-41 -50q-51 6 -84 115.5t-33 169z" />
<glyph unicode="&#x2019;" horiz-adv-x="229" d="M20 1468q0 86 97 86q47 0 79.5 -34.5t32.5 -92t-38 -169t-89 -117.5q-33 8 -37 50t-24.5 151.5t-20.5 125.5z" />
<glyph unicode="&#x201a;" horiz-adv-x="397" d="M33 88q2 68 62 112t138 44q133 0 134 -135q0 -88 -65.5 -199t-149.5 -111q-31 0 -31 25l6 26q31 59 31 93q0 59 -29 65l-10 2q-86 14 -86 78z" />
<glyph unicode="&#x201c;" horiz-adv-x="555" d="M0 1425.5q0 59.5 33 94t80 34.5q96 0 96 -86q0 -14 -24.5 -124.5t-26.5 -152.5t-41 -50q-51 6 -84 115.5t-33 169zM305 1425.5q0 59.5 33 94t80 34.5q96 0 96 -84q0 -25 -24.5 -132t-26.5 -148t-41 -49q-51 6 -84 115.5t-33 169z" />
<glyph unicode="&#x201d;" horiz-adv-x="534" d="M20 1470q0 84 97 84q47 0 79.5 -34.5t32.5 -92t-37 -169t-90 -117.5q-39 8 -41 48t-21.5 147.5t-19.5 133.5zM326 1468q0 86 96 86q47 0 80 -34.5t33 -92t-38 -169t-89 -117.5q-33 8 -37 50t-24.5 151.5t-20.5 125.5z" />
<glyph unicode="&#x201e;" horiz-adv-x="819" d="M33 88q2 68 62 112t138 44q133 0 134 -135q0 -88 -65.5 -199t-149.5 -111q-31 0 -31 25l6 26q31 59 31 93q0 59 -29 65l-10 2q-86 14 -86 78zM455 88q2 68 62 112t138 44q133 0 133 -135q0 -88 -65.5 -199t-149.5 -111q-31 0 -30 25l6 26q31 59 31 93q0 59 -29 65l-10 2 q-86 14 -86 78z" />
<glyph unicode="&#x2022;" horiz-adv-x="387" d="M39 511q0 58 44 110.5t112.5 52.5t104.5 -38t36 -97.5t-43 -108.5t-113.5 -49t-105.5 36t-35 94z" />
<glyph unicode="&#x2026;" horiz-adv-x="1343" d="M33 88q0 63 61.5 110.5t127 47.5t98 -24.5t33.5 -75t-61.5 -97.5t-127 -47t-98 23.5t-33.5 62.5zM504 88q0 63 61.5 110.5t127 47.5t98 -24.5t33.5 -75t-61.5 -97.5t-127 -47t-98 23.5t-33.5 62.5zM989 88q0 63 61.5 110.5t127 47.5t98.5 -24.5t34 -75t-61.5 -97.5 t-127 -47t-98.5 23.5t-34 62.5z" />
<glyph unicode="&#x202f;" horiz-adv-x="374" />
<glyph unicode="&#x2039;" horiz-adv-x="641" d="M41 492q0 30 25.5 61t73.5 89t144.5 160.5t131.5 112.5q29 16 115.5 16.5t86.5 -32.5q0 -20 -34 -49q-12 -12 -34 -31.5t-76 -74t-95 -97.5q-109 -117 -109 -152.5t78 -124.5t156 -163l78 -74q34 -28 34 -51q0 -33 -110 -33q-47 0 -89 16.5t-130 110.5t-156 180l-70 86 q-20 20 -20 50z" />
<glyph unicode="&#x203a;" horiz-adv-x="636" d="M10 899q0 33 99 33q68 0 104 -17q35 -10 123 -102t160 -180l71 -88q20 -23 21 -45q0 -33 -21 -58q-266 -342 -350 -374q-45 -18 -86 -18.5t-80 4.5t-39 27.5t35 51.5q12 12 33.5 31.5t75 73t94.5 98.5t74.5 90t33.5 70.5t-77.5 114.5t-157.5 163l-78 76q-35 29 -35 49z " />
<glyph unicode="&#x205f;" horiz-adv-x="468" />
<glyph unicode="&#x20ac;" horiz-adv-x="886" d="M0 690q0 27 14 47q23 29 43 29h68q2 35 10 108h-94q-14 0 -27.5 12.5t-13.5 35t14 41.5q23 33 43 32h99q111 516 508 516q162 0 196 -79q23 -68 23 -132q0 -94 -62 -106q-31 0 -68.5 27.5t-93.5 33.5q-166 0 -217 -260h217q47 0 48 -45q-4 -31 -19.5 -50t-44.5 -26h-217 q-4 -82 -4 -108h223q61 0 62 -43q0 -23 -18.5 -46.5t-45.5 -31.5h-219q23 -336 209 -336q72 0 109.5 28t71.5 28t53.5 -33t19.5 -76q0 -133 -108.5 -216t-238.5 -83t-214 59.5t-125 159.5q-80 190 -80 447v22h-80q-41 4 -41 45z" />
<glyph unicode="&#x2122;" horiz-adv-x="991" d="M121 1301.5q0 23.5 12 57.5t33 50q23 16 74 16l77 -4q43 0 55.5 6.5t22.5 6.5q18 0 19 -27l-13 -59q-14 -47 -69 -48q-10 0 -10 -14q-4 -72 -4.5 -198.5t12.5 -204.5v-11q0 -20 -19 -34q-41 -35 -102 -35q-29 0 -29 26q31 246 31 457q0 10 -17.5 10t-32 -9t-22.5 -9 q-18 0 -18 23.5zM381 811l29 119q23 131 22.5 254t-12.5 143.5t-12 30.5q0 37 60 57.5t101 20.5t51.5 -36t20.5 -99.5t20.5 -63.5t14.5 10q29 72 45 121q8 37 55 51q33 12 86 12.5t53 -28.5q0 -7 -8 -23q-37 -55 -37 -333q0 -127 25 -146q14 -12 14 -27q0 -29 -43 -48 t-69 -19q-45 0 -47 24q-6 41 -7 64l11 184q6 51 6 95.5t-6 44.5q-18 0 -60 -154l-35 -100q-14 -31 -41 -31q-18 0 -22 20l-61 250q-2 14 -11 15q-14 0 -13 -116t1 -165l-2 -70q-2 -31 -31 -49q-35 -27 -66.5 -26.5t-31.5 18.5z" />
<glyph unicode="&#xe000;" horiz-adv-x="1013" d="M0 0v1014h1014v-1014h-1014z" />
<glyph unicode="&#xfb01;" horiz-adv-x="991" d="M2 1288q0 72 80 133q16 12 44 30.5t112 48.5t163 30q145 0 146 -80q0 -55 -45 -79.5t-82 -58.5t-51 -57l-13 -22q-29 -51 -28.5 -124t6.5 -128q0 -27 41 -29q63 2 92 2q55 0 55 -59t-29.5 -124.5t-82.5 -70.5q-59 0 -74 -20q-10 -18 -10 -261t18 -357.5t18 -139t-8 -41.5 q-33 -63 -104 -102q-100 -51 -173 -51t-73 67l6 41q63 303 63.5 818t-53.5 571q-18 25 -18 63zM561 831q0 70 106.5 124.5t179.5 54.5t75 -74q0 -51 -9.5 -183t-9.5 -245q0 -272 49 -342q29 -16 29 -51q0 -68 -75 -107t-169 -39q-125 0 -125 84q0 4 6 47q29 164 29 367 l-6 203q0 33 -15.5 61.5t-40 51t-24.5 48.5zM586 1247q0 78 73.5 126t140 48t104.5 -26.5t38 -73.5q0 -76 -72.5 -122t-140 -46t-105.5 25.5t-38 68.5z" />
<glyph unicode="&#xfb02;" horiz-adv-x="1007" d="M2 1288q0 72 80 133q16 12 44 30.5t112 48.5t163 30q145 0 146 -80q0 -55 -45 -79.5t-82 -58.5t-51 -57l-13 -22q-29 -51 -28.5 -124t6.5 -128q0 -27 41 -29q63 2 92 2q55 0 55 -59t-29.5 -124.5t-82.5 -70.5q-59 0 -74 -20q-10 -18 -10 -261t18 -357.5t18 -139t-8 -41.5 q-33 -63 -104 -102q-100 -51 -173 -51t-73 67l6 41q63 303 63.5 818t-53.5 571q-18 25 -18 63zM551 1331q0 68 115.5 129.5t181.5 61.5q74 0 74 -74q0 -121 -13.5 -312.5t-13.5 -408.5t5 -361.5t71 -191.5q35 -20 35 -63t-54 -80q-98 -68 -221 -68q-84 0 -104 70 q-6 27 -6 67.5t3 92t7 133.5q18 369 18 582.5t-6 258.5q-8 74 -51 105l-14 10q-27 18 -27 49z" />
</font>
</defs>
</svg>
